<?xml version="1.0" encoding="utf-8"?>
<!-- Generator: Adobe Illustrator 24.3.0, SVG Export Plug-In . SVG Version: 6.00 Build 0)  -->
<svg version="1.1" id="Layer_1" xmlns="http://www.w3.org/2000/svg" xmlns:xlink="http://www.w3.org/1999/xlink" x="0px" y="0px"
	 viewBox="0 0 245 80" style="enable-background:new 0 0 245 80;" xml:space="preserve">
<style type="text/css">
	.st0{fill:#2C2863;}
	.st1{fill:#9F1F20;}
</style>
<g>
	<path class="st0" d="M91.9,6.9c-0.3-0.1-0.4,0.2-0.5,0.2c-0.1,0-0.1-0.1,0-0.1l0.2-0.2c0,0,0-0.1,0-0.1c0,0-0.1,0-0.1,0
		c-0.1,0.1-0.3,0.1-0.4,0c0,0,0,0-0.1,0c0,0,0,0,0,0.1l0.2,0.4c0,0,0,0.1,0,0.1l-0.2,0.3c0,0,0,0.1,0,0.1c0.1,0.1,0.2,0.2,0.2,0.3
		c0,0,0,0.1,0,0.1c-0.2,0.2-0.4,0.4-0.7,0.5c0,0-0.1,0,0,0.1L90.9,9c0,0,0.1,0.1,0.1,0.1c0,0.1,0.1,0.2,0.3,0.3c0,0,0.1,0.1,0,0.1
		c-0.1,0.1-0.3,0.1-0.4,0c0,0-0.1,0-0.1,0c0,0.2,0,0.3,0.2,0.3c0,0,0.1,0.1,0,0.1l-0.3,0.2c-0.1,0.1-0.2,0-0.2-0.1l0.1-0.2
		c0-0.1-0.1-0.1-0.1-0.1l-0.1,0.1c0,0-0.1,0-0.1,0c0-0.2-0.1-0.2-0.3-0.2c0,0-0.1,0-0.1-0.1V9.4c0,0,0-0.1-0.1-0.1l-0.4,0.2
		c0,0,0,0,0,0.1c0.1,0.3-0.2,0.3-0.4,0.5c-0.2,0.3-0.6,1-0.2,1.3c0,0,0.1,0.1,0.1,0.1l0.1,0.3c0,0,0,0.1,0.1,0.1
		c0.8,0,0.9,0.9,1.7,0.7c0.1,0,0.1,0,0.1,0.1c0,0.3,0,0.7,0.5,0.6c0,0,0.1,0,0-0.1l-0.1-0.4c0,0,0,0,0-0.1l0.3-0.1
		c0,0,0.1,0,0.1-0.1c0.2-0.4,0.3-0.8-0.1-1.1c0,0,0-0.1,0-0.1l0.2-0.4c0,0,0-0.1,0-0.1l-0.1-0.1c0,0,0-0.1,0-0.1
		c0.1-0.2,0.1-0.4,0-0.6c0,0,0-0.1,0.1-0.1c0.2,0,0.3,0,0.4,0.1c0,0,0.1,0,0.1,0l0.1-0.1c0,0,0.1,0,0.1,0c0.2,0.1,0.3,0.2,0.5,0.4
		c0,0,0.1,0.1,0.1,0.1c0.2,0.1,0.4,0.2,0.6,0.4c0,0,0,0.1,0,0.1l-0.3,0c0,0-0.1,0,0,0.1l0.2,0.5c0,0,0,0.1,0.1,0
		c0.4-0.1,0.4-0.5,0.5-0.8c0,0,0.1,0,0.1,0c0.3,0.4,0.5,0.9,0.6,1.5c0,0,0,0.1,0,0.1c0.2,0.2,0.4,0.3,0.6,0.4c0,0,0.1,0.1,0,0.1
		c-0.1,0.2,0,0.3,0.2,0.3c0,0,0.1,0,0.1,0.1c0.1,0.3,0.1,0.6,0,0.9c0,0,0,0.1,0,0.1c0.1,0.1,0.2,0.2,0.3,0.1c0,0,0.1,0,0.1,0
		c0,0.2,0.1,0.4,0.3,0.5c0,0,0,0.1,0,0.1c-0.2,0.3-0.6,0.1-0.8,0c0,0-0.1,0-0.1,0c-0.2,0-0.5,0-0.7-0.1c0,0-0.1,0-0.1,0.1l0.2,0.4
		c0,0,0,0.1,0,0.1l-1,0.6c0,0-0.1,0-0.1-0.1l0-0.3c0-0.1,0-0.1-0.1,0L93,16c0,0,0,0.1,0,0.1c0.2,0.3-0.4,0.5-0.6,0.6
		c0,0-0.1,0.1-0.1,0.1c0,0.2-0.2,0.4-0.4,0.4c0,0,0,0,0,0.1l0.1,0.4c0,0.1,0,0.1,0,0.1l-0.9,0.8c-0.1,0.1-0.1,0.2,0,0.3
		c0.2,0.3,0.2,0.6,0.3,0.9c0,0.1-0.1,0.2-0.2,0.1c-0.2-0.2-0.3-0.4-0.3-0.7c0,0,0-0.1-0.1-0.1L89.8,19c0,0-0.1,0-0.1,0
		c-0.2,0.3-0.5,0.3-0.8,0.1c0,0-0.1,0-0.1,0c-0.2,0.1-0.7,0.4-0.6,0.6c0,0,0,0.1,0,0.1c-0.2,0.5-0.1,0.9,0.2,1.3c0,0,0.1,0,0.1,0.1
		c0.3,0,0.5,0,0.7-0.1c0,0,0.1,0,0.1-0.1c0.1-0.4,0.4-0.5,0.8-0.5c0.1,0,0.2,0.1,0.1,0.2L90,21.1c0,0,0,0.1,0,0.1
		c0,0.2-0.1,0.3-0.2,0.4c0,0,0,0.1,0,0.1c0.3,0,0.6,0.1,0.8,0.2c0.1,0.1,0.1,0.2,0.1,0.3l-0.2,0.3c0,0,0,0.1,0,0.1
		c0.1,0.2,0.3,0.4,0.5,0.6c0,0,0.1,0,0.1,0c0.2-0.2,0.5-0.2,0.7,0c0,0.1,0.1,0,0.1,0c0.1-0.5,0.6-0.3,0.8-0.7c0,0,0.1,0,0.1,0
		l0.3,0.1c0,0,0.1,0,0.1,0c0.2,0,0.3,0.1,0.2,0.2c0,0,0,0.1,0.1,0.1c0.2-0.1,0.3,0,0.5,0c0,0,0.1,0,0.1,0c0.1-0.1,0.3-0.1,0.4,0
		c0,0,0.1,0,0.1,0l0.1-0.2c0,0,0,0,0.1,0l0,0c0,0,0.1,0,0,0.1l-0.1,0.4c0,0,0,0.1,0.1,0.1c0.2,0,0.4,0.1,0.5,0.3c0,0,0.1,0.1,0.1,0
		c0.2-0.1,0.3-0.1,0.4,0.1c0,0,0.1,0,0.1,0.1c0.4,0.1,0.6,0.3,0.8,0.6c0,0,0,0.1,0.1,0.1c0.1,0.1,0.1,0.2,0.1,0.3
		c0,0.1,0,0.1,0.1,0.1c0.3,0.1,0.5,0.2,0.8,0.3c0.4,0.2,0.7,0.2,1.1,0.3c0,0,0.1,0,0.1,0.1c0.1,0.2,0.3,0.3,0.6,0.4
		c0,0,0.1,0,0.1,0.1c0.3,0.6-0.3,1.1-0.7,1.5c0,0,0,0.1,0,0.1c0.1,0.5-0.1,1.2-0.4,1.6c-0.4,0.4-1.6,0.3-1.3,1.1c0,0,0,0.1,0,0.1
		c-0.2,0.3-0.3,0.6-0.5,0.8c-0.3,0.3-0.5,0.9-1.1,0.6c0,0-0.1,0-0.1,0l0.2,0.4c0,0,0,0.1,0,0.1c-0.1,0.4-0.6,0.5-0.9,0.5
		c0,0,0,0,0,0l0,0.3c0,0,0,0.1-0.1,0.1c-0.1,0.1-0.3,0.1-0.4,0c0,0-0.1,0-0.1,0.1c0,0.2,0.1,0.2,0.3,0.2c0.1,0,0.1,0.1,0,0.1
		l-0.2,0.1c0,0-0.1,0.1-0.1,0.1c0,0.3-0.1,0.4-0.4,0.5c-0.1,0-0.1,0.2,0,0.3l0.2,0.1c0,0,0.1,0.1,0,0.1c0,0.2-0.2,0.3-0.3,0.4
		c0,0-0.1,0.1-0.1,0.1c0,0.2-0.1,0.3-0.2,0.3c0,0-0.1,0-0.1,0.1c0,0.1,0,0.3,0.1,0.4c0,0,0,0.1,0,0.1c0,0.4,0.3,0.6,0.6,0.7
		c0,0,0,0.1,0,0.1l-0.5,0.2c0,0-0.1,0-0.1,0c-0.4-0.1-0.8-0.4-1.1-0.7c0,0,0-0.1,0-0.1l0.1-0.1c0,0,0-0.1,0-0.1l-0.2-0.1
		c0,0,0-0.1,0-0.1l0.1-0.1c0,0,0,0,0-0.1l-0.3-0.7c0,0,0-0.1,0-0.1l0.3-0.3c0.1-0.1,0-0.2-0.1-0.1L92,34.7c0,0,0,0,0,0c0,0,0,0,0,0
		c0,0,0,0,0,0c0.2-0.1,0.3-0.3,0.3-0.5c0,0,0-0.1,0.1-0.1l0.2-0.1c0,0,0-0.1,0-0.1c0-0.1-0.1-0.1-0.2-0.1c0,0-0.1,0-0.1-0.1l0.2-1
		c0,0,0-0.1,0-0.1c-0.2-0.4,0.1-0.9,0.3-1.3c0,0,0-0.1,0-0.1c0-0.2,0-0.4,0.1-0.7c0.1-0.3,0.1-0.7,0.2-1.4c0.1-0.8-0.4-1.1-1-1.4
		c0,0-0.1,0-0.1-0.1c-0.2-0.5-0.4-0.9-0.6-1.3c-0.2-0.2-0.7-0.5-0.2-0.8c0.1,0,0.1-0.1,0-0.2c-0.1,0-0.2-0.1-0.3-0.2
		c0,0,0-0.1,0-0.1l0.2,0c0,0,0.1,0,0.1-0.1c0.2-0.3,0.3-0.6,0.5-0.9c0.2-0.3-0.1-0.8-0.5-0.5c0,0-0.1,0-0.1,0c-0.5-0.2-1-0.6-1.3-1
		c0,0-0.1,0-0.1-0.1c-0.4-0.1-0.7-0.2-1-0.5c0,0-0.1,0-0.1,0c-0.2,0-0.5,0.1-0.7,0c-0.5-0.2-0.9-0.4-1.2-0.5
		c-0.2-0.1-0.2-0.3-0.2-0.5c0,0,0-0.1,0-0.1c-0.2-0.3-0.4-0.5-0.6-0.7c-0.1-0.1-0.2,0-0.2,0.1l0.1,0.2c0,0.1,0,0.1-0.1,0.1
		c-0.3-0.1-0.5-0.4-0.6-0.6c0,0,0-0.1-0.1-0.1l-0.3-0.2c0,0,0-0.1,0-0.1c0.1-0.2,0-0.3-0.1-0.4c0,0,0,0-0.1-0.1
		c-0.1-0.4-0.2-0.6-0.5-0.8c-0.3-0.2-0.4-0.3-0.6-0.5c0,0-0.1,0-0.1,0c-0.1,0.2-0.2,0.5-0.2,0.7c-0.1,1.2-0.2,2.3-0.2,3.5
		c0,0.1,0,0.2,0,0.3c0,0.1,0,0.1,0,0l0-0.1c0,0-0.1-0.1-0.1,0c-0.6,0.1-1.1,0-1.5-0.4c-1.7-1.5-2.3-3.4-2.5-5.6
		c-0.5-4.5,0.7-9,4.2-12c0.2-0.2,0.4-0.3,0.7-0.4c25.1-9.3,52.6,2.4,63.2,26.8c0,0.1,0,0.1-0.1,0.1l-4.7,0c-0.1,0-0.1,0-0.1-0.1
		c-0.6-1.1-1.1-2.1-1.7-3.1c-2-3.5-4.5-6.7-7.5-9.7c-0.1-0.1-0.2-0.2-0.2-0.2c0,0-0.1,0-0.1,0v0.4c0,0,0,0.1-0.1,0.1
		c0,0-0.1,0-0.1,0c0,0-0.1,0-0.1,0c-0.5,0.3-1,0.3-1.5,0.7c0,0-0.1,0-0.1,0c0-0.1-0.1-0.2-0.2-0.2c0,0-0.1-0.1,0-0.1l0.2-0.1
		c0,0,0.1,0,0.1-0.1c0.2-0.3,0.5-0.4,0.8-0.4c0,0,0.1,0,0.1,0l0.6-0.5c0.1,0,0.1-0.1,0-0.2c-0.4-0.4-0.8-0.8-1.3-1
		c-0.1-0.1-0.2,0-0.3,0.1c-0.1,0.3-0.3,0.5-0.5,0.6c0,0,0,0.1,0,0.1l0.3,0.8c0,0,0,0.1,0,0.1c-0.1,0.1-0.3,0.1-0.5,0c0,0,0,0,0-0.1
		c0.1-0.2,0-0.4-0.2-0.4c0,0-0.1,0-0.1-0.1l-0.1-0.4c0,0-0.1,0-0.1,0c-0.2,0.1-0.4,0.2-0.6,0.2c0,0-0.1,0,0,0.1
		c0.1,0.1,0.2,0.2,0.4,0.2c0.1,0,0.1,0.1,0,0.2l-0.6,0.4c0,0,0,0.1,0,0.1l0.2,0.1c0,0,0,0.1,0,0.1c0,0.2,0.1,0.4,0.3,0.5
		c0,0,0,0.1,0,0.1l-0.2,0.1c0,0,0,0,0,0.1c0.3,0.3,0,0.6-0.2,0.9c-0.5,0.6-0.9,0.8-1.7,1c0,0-0.1,0,0,0.1l0.1,0.2c0,0,0,0.1,0,0.1
		c-0.1,0.2-0.3,0.3-0.5,0.2c-0.1,0-0.2,0.1-0.1,0.2c0.2,0.3,0.6,0.8,0.4,1.1c0,0,0,0-0.1,0.1c-0.3,0.1-0.5,0.3-0.7,0.6
		c0,0-0.1,0-0.1,0v-0.2c0,0,0-0.1,0-0.1c-0.2-0.2-0.4-0.5-0.6-0.5c0,0-0.1,0-0.1,0c-0.4,0.7,0.1,0.9,0.5,1.4c0,0,0,0.1,0,0.1l0,0.2
		c0,0,0,0.1,0,0.1c0.1,0.1,0.1,0.1,0.2,0.2c0,0,0,0.1,0,0.1h-0.2c0,0-0.1,0-0.1,0.1l0.2,0.5c0,0,0.1,0.1,0.1,0l0.2-0.1
		c0,0,0,0,0.1,0l0.1,0.1c0,0,0,0.1,0,0.1c-0.2,0.1-0.2,0.2-0.1,0.4c0,0,0,0.1,0,0.1l-0.2,0.1c0,0-0.1,0-0.1,0
		c-0.4-0.5-0.7-0.9-1.1-1.4c-0.1-0.2-0.4-0.3-0.5-0.5c0-0.1,0.1-0.3,0.2-0.2c0.2,0.1,0.7,0.5,0.9,0.5c0.1,0,0.1-0.1,0-0.1
		c-0.1-0.1-0.2-0.3-0.2-0.4c0,0,0-0.1,0-0.1c-0.3-0.2-0.4-0.5-0.2-0.9c0,0,0-0.1,0-0.1l-0.2-0.9c0-0.1-0.1-0.1-0.1-0.1l-0.3,0.2
		c-0.1,0.1-0.2,0-0.2-0.2l0.1-0.2c0,0,0-0.1,0-0.1c-0.2-0.2-0.4-0.5-0.5-0.8c0,0-0.1,0-0.1,0c-0.2,0.2-0.4,0.2-0.7,0.2
		c0,0-0.1,0-0.1,0.1c0,0.2,0,0.3-0.2,0.3c0,0-0.1,0-0.1,0.1c-0.3,0.3-0.6,0.6-0.9,0.8c0,0,0,0.1,0,0.1c0.1,0.5-0.1,0.9-0.5,1.3
		c0,0-0.1,0-0.1,0c-0.1-0.2-0.2-0.4-0.2-0.6c0,0,0-0.1,0-0.1c-0.1-0.1-0.2-0.2-0.2-0.4c0,0,0-0.1,0-0.1c-0.3-0.4-0.5-0.8-0.3-1.3
		c0-0.1,0-0.1-0.1-0.1c-0.2,0.1-0.7,0.2-0.5-0.3c0,0,0-0.1,0-0.1l-0.3-0.2c0,0-0.1,0-0.1-0.1c0-0.2-0.2-0.3-0.4-0.2
		c-0.5,0.1-1,0-1.5-0.1c-0.1,0-0.2,0.1-0.1,0.1c0.1,0.3,0.6,0.3,0.6,0.6c0,0,0,0.1,0,0.1c-0.3,0.5-0.5,0.8-1,1
		c-0.7,0.3-1.2,0.7-2,0.8c-0.1,0-0.1,0.1-0.1,0.2c0.3,0.3,0.8,0,1.2-0.1c0.2-0.1,0.4,0,0.3,0.3c-0.3,0.9-0.8,1.3-1.4,1.8
		c-0.6,0.5-0.9,0.9-0.7,1.7c0,0.1,0,0.2,0.2,0.4c0,0,0,0.1,0,0.1c-0.1,0.3-0.1,0.6-0.1,0.9c0,0,0,0.1,0,0.1l-0.9,0.5
		c-0.1,0.1-0.1,0.2-0.1,0.3c0.1,0.2,0.2,0.4,0.1,0.7c0,0,0,0.1-0.1,0.1c-0.3,0.1-0.4,0.2-0.4,0.6c0,0,0,0.1,0,0.1
		c-0.2,0.3-0.4,0.5-0.5,0.8c-0.2,0.2-0.4,0.3-0.6,0.5c0,0-0.1,0-0.1,0c-0.5-0.1-1.2,0.4-1.5-0.1c0,0,0-0.1,0-0.1
		c0-0.9-0.7-1.3-0.6-2.2c0,0,0,0,0-0.1l-0.5-0.8c0,0,0-0.1,0-0.1c0-0.4,0.1-0.8,0.3-1.1c0.1-0.2,0.1-0.3-0.1-0.4c0,0,0-0.1,0-0.1
		l0.1-0.1c0,0,0-0.1,0-0.1c-0.1-0.5-0.4-0.9-0.8-1.1c0,0,0-0.1,0-0.1l0.3-0.7c0,0,0-0.1,0-0.1l-0.3-0.3c0,0-0.1,0-0.1,0
		c-0.3,0.1-0.4,0-0.6-0.2c0,0,0-0.1-0.1-0.1c-0.4-0.1-0.8,0-1.1,0.2c0,0-0.1,0-0.1,0l-1.2,0c0,0-0.1,0-0.1,0
		c-0.3-0.2-0.5-0.3-0.7-0.5c0,0,0,0-0.1-0.1c-0.1-0.3-0.3-0.5-0.6-0.7c-0.2-0.2-0.2-0.4-0.1-0.7c0.1-0.4,0.1-0.8,0-1.1
		c0,0,0-0.1,0-0.1c0.2-0.7,0.7-1.2,1.3-1.6c0.1,0,0.1-0.1,0-0.2c-0.3-0.2-0.1-0.4,0.1-0.5c0.2-0.1,0.9-0.8,0.3-0.9
		c-0.2-0.1-0.3-0.1-0.4-0.2c0,0,0-0.1,0-0.1c0.1-0.3,0.1-0.7,0-1c0-0.1,0.1-0.3,0.2-0.2l1,0.1c0,0,0.1,0,0.1,0
		c0.4-0.5,0-0.9-0.5-1.1c-0.1,0-0.1-0.1,0-0.2c0.1-0.1,0.2-0.1,0.4-0.1c0,0,0.1,0,0.1,0l0.1-0.2c0,0,0,0,0.1,0
		c0.4,0.2,0.5-0.3,0.8-0.4c0,0,0.1,0,0.1-0.1c0.2-0.4,0.5-0.6,0.9-0.7c0.2,0,0.2-0.2,0.1-0.3c-0.3-0.3-0.2-0.8,0.2-0.9
		c0,0,0.1,0,0.1,0c0.1,0.1,0.1,0.1,0.2,0.1c0.1,0,0.1,0,0-0.1l-0.2-0.5c0,0-0.1,0-0.1,0l-0.4,0.3c-0.1,0.1-0.3,0.1-0.4-0.1
		c-0.2-0.4-0.3-0.9-0.2-1.3c0,0,0-0.1,0-0.1l0.4-0.5c0,0,0.1-0.1,0.1-0.1c0.3-0.1,0.5-0.3,0.6-0.6c0,0,0-0.1,0.1-0.1l0.1-0.1
		c0,0,0.1-0.1,0.1-0.1c0.1-0.4,0.3-0.8,0.6-1.2c0,0,0-0.1-0.1-0.1l-0.2,0.1c-0.1,0-0.1-0.1-0.1-0.1c0.4-0.4,0.9-0.8,1.5-1.1
		c0,0,0.1,0,0.1-0.1c0.1-0.2,0.2-0.2,0.4-0.2c0,0,0.1,0,0.1,0l0,0c0,0,0-0.1,0-0.1c-2.8-0.6-5.7-0.9-8.6-1c-0.1,0-0.1,0-0.1,0.1
		l0.1,0.2c0,0,0,0.1,0,0.1l-0.2,0c0,0-0.1,0,0,0.1c0.2,0.2,0.3,0.4,0.3,0.7c0,0,0,0.1-0.1,0.1l-0.2,0.1c0,0-0.1,0,0,0.1l0.1,0.2
		c0,0,0,0.1,0,0.1c-0.6,0.4-0.8,0.8-1.6,0.9c0,0-0.1,0-0.1,0.1c-0.4,0.5-0.6,1.2-1.3,1.1c0,0-0.1,0-0.1,0c-0.2,0.2-0.2,0.5-0.2,0.8
		c0,0,0,0.1,0,0.1l-0.2,0.2c0,0,0,0.1,0,0.1c0,0.3,0,0.6-0.2,0.9c-0.1,0.1-0.3,0.2-0.4,0l-0.2-0.3c0,0-0.1,0-0.1,0
		c-0.1,0.1-0.1,0.1-0.2,0.1c0,0-0.1,0-0.1-0.1c0-0.2-0.2-0.4-0.4-0.5c0,0-0.1,0-0.1-0.1c-0.1-0.2-0.4-0.9-0.1-1c0,0,0-0.1,0-0.1
		c-0.2-0.1-0.3-0.3-0.3-0.6c0,0,0-0.1,0-0.1l-0.1-0.1c0,0,0-0.1,0-0.1c0.1-0.2,0.2-0.5,0.2-0.8c0,0,0-0.1,0.1-0.1
		c0.2,0,0.3,0,0.3-0.2c0-0.1-0.1-0.2-0.2-0.1C96,7.2,95.8,6.4,96.1,6c0.1-0.1,0-0.2-0.1-0.3l-0.3-0.1c0,0-0.1,0,0-0.1l0-0.2
		c0,0,0-0.1-0.1-0.1c-0.8,0.1-1.7,0.3-2.4,0.4c-0.1,0-0.1,0-0.1,0c0,0-0.1,0.1,0,0.1l0.6,0.6c0,0,0,0.1,0,0.1
		c-0.1,0.2,0,0.3,0.2,0.4c0,0,0,0.1,0,0.1l-0.2,0c-0.1,0-0.1,0.2-0.1,0.2c0.2,0.2,0.6,0.3,0.7,0.5c0,0,0,0.1,0.1,0.1
		c0.2,0.1,0.3,0.2,0.4,0.4c0,0,0,0.1,0,0.1c-0.2,0-0.2,0.1-0.2,0.3c0,0,0,0.1-0.1,0.1l-0.2,0c0,0,0,0-0.1,0.1l0,0.2c0,0,0,0.1-0.1,0
		l-0.2-0.1c-0.1-0.1-0.2,0-0.2,0.1c0.1,0.2,0.5,0.5,0.2,0.7c0,0,0,0.1,0,0.1c0,0,0.1,0.1,0.1,0.2c0,0.1,0,0.1-0.1,0l-0.2-0.1
		c0,0-0.1,0-0.1,0l0,0.2c0,0.1-0.1,0.1-0.1,0.1c-0.6-0.2-1-0.5-1.4-1c-0.1-0.1-0.2-0.1-0.3,0c-0.2,0.1-0.3,0.1-0.5,0
		c0,0,0-0.1,0-0.1c0-0.1,0-0.2,0.1-0.3c0,0,0.1-0.1,0.1-0.1l0.6,0c0,0,0.1-0.1,0-0.1l-0.1-0.1c0,0,0-0.1,0-0.1l0.4-0.5
		c0.1-0.1,0-0.2-0.1-0.2c-0.2,0-0.3,0.1-0.4,0.2C92,8,91.7,7.9,91.8,7.7c0,0,0-0.1,0-0.1c0-0.1,0.5-0.4,0.4-0.5c0,0-0.1,0-0.1,0
		c-0.1,0.1-0.2,0.1-0.3,0.1c0,0-0.1,0-0.1,0.1c0,0.1-0.1,0.1-0.1,0.2c0,0-0.1,0-0.1,0c-0.1,0-0.1-0.1,0-0.1c0,0,0.1,0,0.1-0.1
		C91.7,7.2,91.8,7.1,91.9,6.9C92,7,92,6.9,91.9,6.9L91.9,6.9z"/>
	<path class="st0" d="M68.6,16.7c0-0.1-0.1-0.1-0.2-0.1c-0.2,0.3-0.4,0.6-0.6,0.9c-1.3,2.2-0.3,4.3,1,6.1c3.2,4.3,6.5,8.6,9.7,13
		c4.8,6.3,9.4,13.2,9.4,21.6c0,5.9-3.5,11.7-7.8,15.7c-6,5.7-13.6,6.4-21.5,4.8c-0.2-0.1-2.2-0.4-2.2-0.6c0,0,0,0,0,0
		c9,1.4,18.9-1.4,24.5-8.9c4.5-6.1,4.9-14.3,1.3-20.8c-0.4-0.8-0.9-1.6-1.6-2.6c-3.8-5.6-8.1-10.9-12-16.4c-1.4-2-2.6-3.9-3.6-6.1
		c-0.9-2-0.9-3.9-0.4-6c1-4.2,3.1-7.6,6.4-10.3c0.1-0.1,0.2-0.1,0.2-0.1c0.1,0,0.2,0.1,0.2,0.2c0.1,0.9,0.1,1.8,0.2,2.7
		c0,0.7,0.1,1.4,0.1,2.2c0.1,4.9,0.1,9.8,0.1,14.7c0,0,0,0.1-0.1,0.1c0,0-2.4-3.2-2.7-3.5c-0.4-0.6-0.5-1.1-0.6-1.8
		C68.7,19.8,68.6,18.2,68.6,16.7L68.6,16.7z"/>
	<path class="st0" d="M101.7,8.7l-0.1-0.1c0,0,0-0.1,0-0.1l0.4-0.3c0,0,0.1,0,0.1,0l0.1,0.2c0,0,0.1,0.1,0.1,0l0.3-0.1
		c0,0,0.1,0,0.1,0c0.2,0,0.4,0,0.5-0.2c0,0,0.1,0,0.1,0l0.4,0.5c0,0,0,0.1,0,0.1c-0.2,0.3-0.5,0.5-0.9,0.7c-0.2,0.1-0.7-0.1-0.9-0.1
		c-0.1,0-0.1-0.1,0-0.1l0.2-0.2c0,0,0-0.1,0-0.1l-0.3,0c0,0-0.1,0,0-0.1L101.7,8.7C101.7,8.8,101.7,8.8,101.7,8.7L101.7,8.7z"/>
	<path class="st0" d="M92,9.5c0,0.1-0.1,0.1-0.2,0.2c-0.1,0-0.2,0-0.3,0c0-0.1,0.1-0.1,0.2-0.2C91.8,9.5,91.9,9.5,92,9.5L92,9.5z"/>
	<path class="st0" d="M105,10.4C105,10.4,104.9,10.4,105,10.4L105,10.4c-0.2,0-0.3-0.1-0.2-0.2l0,0c0-0.1,0.1-0.2,0.2-0.2l0,0
		c0,0,0,0,0,0.1L105,10.4L105,10.4z"/>
	<path class="st0" d="M91.2,10.4c-0.1,0-0.1-0.1-0.1-0.2c0-0.1,0.1-0.2,0.2-0.1c0.1,0,0.1,0.1,0.1,0.2
		C91.4,10.3,91.3,10.4,91.2,10.4L91.2,10.4z"/>
	<path class="st0" d="M94.2,10.4C94.2,10.4,94.1,10.4,94.2,10.4c-0.2,0-0.2-0.1-0.2-0.1c0-0.1,0.1-0.1,0.1-0.1
		C94.2,10.2,94.2,10.3,94.2,10.4L94.2,10.4z"/>
	<path class="st0" d="M106.1,10.8c0,0.1-0.1,0.2-0.2,0.2c-0.1,0-0.2-0.1-0.2-0.2c0-0.1,0.1-0.2,0.2-0.2
		C106,10.6,106.1,10.7,106.1,10.8L106.1,10.8z"/>
	<path class="st0" d="M105.2,13.5c0-0.1-0.1-0.1-0.1-0.1c-0.2,0.1-0.7,0.6-0.9,0.3c0,0,0-0.1,0-0.1c0.1-0.2,0.1-0.4,0.1-0.6
		c0,0,0-0.1,0-0.1l0.2-0.1c0,0,0.1,0,0.1-0.1c0.1-0.2,0.2-0.3,0.5-0.2c0,0,0.1,0,0.1-0.1c0-0.2,0-0.4-0.2-0.5c0,0,0-0.1,0-0.1l0-0.4
		c0,0,0,0,0,0c0.2,0,0.5-0.1,0.7-0.2c0.1-0.1,0.2,0,0.1,0.1l-0.1,0.3c0,0,0,0.1,0,0.1l0.3,0.1c0,0,0.1,0.1,0,0.1l-0.3,0.4
		c0,0,0,0.1,0,0.1c0.2,0,0.3,0.1,0.2,0.3c0,0,0,0.1,0,0.1c0.2,0.1,0.3,0.2,0.3,0.4c0,0,0,0.1,0.1,0.1l0.2,0.1c0,0,0,0,0,0.1
		l-0.2,0.4c0,0-0.1,0.1-0.1,0.1l-0.6,0.1c0,0-0.1,0-0.1,0c-0.1,0.1-0.2,0.1-0.4,0.1c-0.1,0-0.1-0.1,0-0.1l0.3-0.2c0.1,0,0-0.1,0-0.1
		l-0.2,0c0,0-0.1-0.1,0-0.1C105.2,13.6,105.2,13.6,105.2,13.5L105.2,13.5z"/>
	<path class="st0" d="M91.6,12.1c0,0.1,0,0.2-0.1,0.2c-0.1,0.1-0.2,0.1-0.2,0c0-0.1,0-0.2,0.1-0.2C91.4,12.1,91.5,12.1,91.6,12.1
		L91.6,12.1z"/>
	<path class="st0" d="M63.6,12.2c-0.5,2.3-0.7,4.5-0.5,6.7c0.2,2,0.4,3.9,0.6,5.9c0.3,2.2,0.2,4.2-0.8,6.1c0,0,0,0-0.1,0.1l0,0
		c0,0-0.1,0-0.1-0.1c0-0.2,0.1-0.5,0.1-0.7c0-2-0.1-4-0.5-6C61.8,21.2,60,14,63.6,12.2C63.6,12.1,63.7,12.1,63.6,12.2L63.6,12.2z"/>
	<path class="st0" d="M56.7,22.5c-3.7,2.6,5.1,9.7,6.9,11.2c3.2,2.5,6.3,4.9,9.3,7.8c5.9,5.9,9.2,14,5.9,22.2
		c-1.1,2.8-2.7,5.3-4.7,7.5c0,0,0,0,0,0c0,0,0,0,0,0c2.2-4.6,3.9-9.8,3.7-14.9c-0.2-5.1-2.6-9.3-6.2-12.8c-2.1-2-4.3-3.8-6.7-5.5
		c-2.5-1.7-5-3.2-7.2-5.2c-3.6-3.2-5.5-8-3.5-12.7c0.9-2.1,2.4-3.8,4.5-5.1c0.3-0.2,0.6-0.3,0.9-0.4c0,0,0.1,0,0.1,0.1l0.2,14.5
		c0,0.1,0,0.1-0.1,0c-1.1-1-2.7-2.5-2.8-4.1C56.8,24.2,56.8,23.4,56.7,22.5C56.7,22.5,56.7,22.5,56.7,22.5L56.7,22.5z"/>
	<path class="st0" d="M91.8,20.3c0,0-0.1,0-0.2-0.1c-0.1-0.1-0.1-0.1,0-0.2c0,0,0.1,0,0.2,0.1C91.8,20.2,91.8,20.3,91.8,20.3
		L91.8,20.3z"/>
	<path class="st0" d="M92.2,20.2c0,0-0.1,0-0.1,0c0,0-0.1-0.1,0-0.1c0,0,0.1,0,0.1,0C92.2,20.2,92.2,20.2,92.2,20.2L92.2,20.2z"/>
	<path class="st0" d="M128.5,20.7c-0.1,0-0.1-0.2,0-0.4c0.1-0.2,0.2-0.3,0.3-0.2c0.1,0,0.1,0.2,0,0.4
		C128.7,20.6,128.6,20.7,128.5,20.7L128.5,20.7z"/>
	<path class="st0" d="M92.7,21.1c0.2,0,0.4,0,0.6,0.1c0.1,0,0.1,0.1,0.1,0.2c0,0.1-0.1,0.1-0.1,0.1l-0.9,0.1c-0.1,0-0.1-0.1-0.1-0.1
		l0.1-0.2c0,0,0-0.1,0-0.1c-0.6,0.1-1-0.1-1.5-0.4c0,0-0.1,0-0.1,0c-0.1,0-0.4,0.1-0.4,0c0,0,0-0.1,0-0.1c0.8-0.2,1,0.1,1.7,0.3
		c0.1,0,0.2,0.1,0.3,0.2C92.6,21.1,92.6,21.1,92.7,21.1L92.7,21.1z"/>
	<path class="st0" d="M93.7,21.5C93.7,21.5,93.6,21.4,93.7,21.5c0.1-0.2,0.2-0.2,0.3,0c0,0.1,0,0.2-0.1,0.1L93.7,21.5L93.7,21.5z"/>
	<path class="st0" d="M91.7,21.5c-0.1,0,0-0.1,0-0.1l0.3,0c0,0,0.1,0.1,0,0.1C91.9,21.6,91.8,21.6,91.7,21.5L91.7,21.5z"/>
	<path class="st0" d="M128.5,21.7c-0.1-0.1,0-0.2,0.1-0.3c0.1,0,0.2,0,0.2,0.1c0.1,0.2,0,0.4-0.1,0.5c-0.1,0.1,0,0.2,0.1,0.2
		l0.3,0.1c0,0,0.1,0,0.1,0.1l0.3,0.5c0,0.1,0,0.1,0,0.1c-0.2,0-0.3,0.1-0.4,0.2c0,0-0.1,0.1-0.1,0c-0.1,0-0.1,0-0.1-0.1
		c0,0,0-0.1-0.1-0.1c-0.1-0.1-0.2-0.2-0.3-0.2c0,0-0.1-0.1-0.1-0.1l0.1-0.4c0,0,0-0.1,0-0.1l-0.1-0.1c0,0,0-0.1,0-0.1L128.5,21.7
		C128.5,21.7,128.5,21.7,128.5,21.7L128.5,21.7z"/>
	<path class="st0" d="M128.4,22.8c0,0,0,0.2-0.2,0.3c-0.1,0.1-0.3,0.2-0.3,0.2c0,0,0-0.2,0.2-0.3C128.2,22.9,128.4,22.8,128.4,22.8
		L128.4,22.8z"/>
	<path class="st0" d="M121,23.7c-0.1-0.2-0.1-0.4,0-0.6c0,0,0.1,0,0.1,0l0.3,0.4c0,0,0,0.1,0,0.1c-0.1,0.1-0.1,0.2-0.3,0.1
		C121.1,23.7,121.1,23.7,121,23.7L121,23.7z"/>
	<path class="st0" d="M129,23.6c-0.1,0-0.1,0-0.2,0c0,0-0.1,0-0.1-0.1c0-0.2,0.6-0.3,0.7-0.4c0,0,0.1,0,0.1,0
		c0.1,0.3,0.1,0.5-0.1,0.7c0,0-0.1,0-0.1,0l-0.2-0.2C129.1,23.6,129.1,23.6,129,23.6L129,23.6z"/>
	<path class="st0" d="M127.5,23.8l0-0.1c0,0,0-0.1,0.1-0.1c0.2,0,0.4,0.1,0.6,0.3c0,0,0,0.1,0,0.1c-0.1,0.1-0.2,0.2-0.3,0.3
		c0,0,0,0.1,0,0.1l0.2,0.2c0,0,0,0.1,0,0.1l-0.2,0.1c0,0,0,0.1,0,0.1c0,0.2,0,0.3-0.2,0.3c0,0-0.1,0,0,0.1c0.1,0.1,0,0.2-0.1,0.3
		c0,0-0.1,0-0.1,0c-0.2-0.1-0.5-0.2-0.7-0.2c0,0-0.1,0-0.1-0.1c-0.1-0.2-0.3-0.4-0.5-0.6c0,0,0-0.1,0-0.1c0.1-0.1,0.2-0.2,0.4-0.2
		c0,0,0.1,0,0.1-0.1c0.1-0.1,0.2-0.2,0.4-0.3c0,0,0.1,0,0.1-0.1C127.2,24,127.3,23.9,127.5,23.8C127.5,23.9,127.5,23.9,127.5,23.8
		L127.5,23.8z"/>
	<path class="st0" d="M129.9,25C129.9,25,129.9,25.1,129.9,25L129.9,25c-0.2,0-0.2-0.1-0.2-0.2l0-0.1c0-0.1,0.1-0.2,0.2-0.1l0,0
		c0,0,0,0,0,0.1L129.9,25L129.9,25z"/>
	<path class="st0" d="M128.9,24.8L129,25c0,0,0,0.1,0,0.1l-0.1,0.1c0,0,0,0.1,0,0.1l0.2,0.4c0,0,0,0.1-0.1,0.1
		c-0.1,0-0.2-0.1-0.2-0.2c0-0.1-0.2-0.1-0.2,0l-0.1,0.2c0,0.1-0.1,0.1-0.1,0l0,0c0,0-0.1-0.1,0-0.1l0.1-0.2c0,0,0-0.1,0-0.1
		l-0.2-0.1c-0.1,0-0.1-0.2,0-0.3l0.1,0c0,0,0.1,0,0.1-0.1l0.2-0.4c0,0,0.1-0.1,0.1-0.1c0.2,0.1,0.4,0.1,0.7,0.1c0.1,0,0.1,0,0.1,0.1
		c0,0.1,0,0.1-0.1,0.1c0,0-0.1,0-0.1,0L128.9,24.8C128.9,24.7,128.9,24.8,128.9,24.8L128.9,24.8z"/>
	<path class="st0" d="M132,26.4c-0.1,0.1-0.2,0.1-0.3,0c0,0,0-0.1,0-0.1l0.2-0.1c0,0,0-0.1,0-0.1c-0.1-0.4-0.7-0.4-1-0.5
		c0,0-0.1,0-0.1-0.1c0-0.2-0.1-0.3-0.3-0.3c0,0-0.1,0,0-0.1c0-0.1,0.1-0.1,0.2-0.2c0,0,0.1,0,0.1,0c0.2,0.1,0.4,0.2,0.5,0.4
		c0,0.1,0.1,0.1,0.1,0c0.4-0.4,1.6,0,1.9,0.4c0,0,0.1,0,0.1,0l0.1,0c0,0,0.1,0,0.1,0.1c0,0.1,0,0.1-0.1,0.2c0,0,0,0.1,0,0.1
		c0.2,0.2,0.4,0.3,0.6,0.4c0,0,0,0.1,0,0.1c-0.3,0.3-0.8-0.3-1.1-0.4c0,0-0.1,0-0.1,0c-0.1,0.2-0.3,0.3-0.5,0.3c0,0-0.1,0-0.1,0
		l-0.2-0.2C132.1,26.4,132,26.4,132,26.4L132,26.4z"/>
	<path class="st0" d="M129.4,25.2c0,0.1-0.1,0.1-0.2,0c-0.1,0-0.1-0.1-0.1-0.1c0-0.1,0.1-0.1,0.2,0
		C129.4,25.1,129.5,25.2,129.4,25.2L129.4,25.2z"/>
	<path class="st0" d="M126.3,25.5c0,0-0.1,0-0.2,0c-0.1,0-0.1-0.1-0.1-0.1c0,0,0.1,0,0.2,0C126.3,25.4,126.4,25.4,126.3,25.5
		L126.3,25.5z"/>
	<path class="st0" d="M130.5,25.5C130.5,25.6,130.4,25.6,130.5,25.5l-0.5,0c0,0-0.1,0-0.1-0.1l0,0c0,0,0-0.1,0.1-0.1l0.4,0.1
		C130.5,25.4,130.5,25.5,130.5,25.5L130.5,25.5L130.5,25.5z"/>
	<path class="st0" d="M129.7,25.4c0,0,0,0.1,0,0.1c0,0-0.1,0-0.1,0c0,0,0-0.1,0-0.1C129.6,25.4,129.7,25.4,129.7,25.4L129.7,25.4z"
		/>
	<path class="st0" d="M134.5,25.7c0,0,0,0.1,0,0.1l-0.5,0.2c0,0-0.1,0-0.1,0l0,0c0,0,0-0.1,0-0.1l0.5-0.2
		C134.4,25.6,134.5,25.6,134.5,25.7L134.5,25.7L134.5,25.7z"/>
	<path class="st0" d="M135.1,26.1c0,0-0.1,0-0.2-0.1c-0.1-0.1-0.1-0.2-0.1-0.2c0,0,0.1,0,0.2,0.1C135.1,26,135.1,26.1,135.1,26.1
		L135.1,26.1z"/>
	<path class="st0" d="M131,26.2c0,0-0.1-0.1,0-0.2c0-0.1,0.1-0.1,0.2-0.1c0,0,0.1,0.1,0,0.2C131.2,26.2,131.1,26.2,131,26.2
		L131,26.2z"/>
	<path class="st0" d="M127.5,26.4c0,0.1-0.1,0.1-0.1,0.1l-1.5-0.3c-0.1,0-0.1-0.1-0.1-0.1l0,0c0-0.1,0.1-0.1,0.1-0.1l1.5,0.3
		C127.4,26.3,127.5,26.4,127.5,26.4L127.5,26.4L127.5,26.4z"/>
	<path class="st0" d="M135.6,26.3c0,0-0.1,0.1-0.2,0c-0.1,0-0.2-0.1-0.2-0.1c0,0,0.1-0.1,0.2,0C135.5,26.2,135.6,26.2,135.6,26.3
		L135.6,26.3z"/>
	<path class="st0" d="M128.1,26.5l-0.3,0c0,0-0.1,0-0.1-0.1c0,0,0-0.1,0-0.1c0.3-0.1,0.6-0.1,0.8,0.2c0,0,0,0.1,0,0.1
		c0,0-0.1,0-0.1,0L128.1,26.5C128.1,26.6,128.1,26.5,128.1,26.5L128.1,26.5z"/>
	<path class="st0" d="M128.6,26.5C128.6,26.5,128.6,26.5,128.6,26.5L128.6,26.5c0-0.1,0-0.2,0.1-0.1c0.1,0.1,0.2,0.1,0.3,0.1
		c0,0,0,0,0,0c0,0,0,0,0,0C128.8,26.6,128.7,26.6,128.6,26.5L128.6,26.5z"/>
	<path class="st0" d="M129.2,26.8C129.2,26.8,129.2,26.8,129.2,26.8L129.2,26.8c-0.1-0.1,0-0.3,0.1-0.3l0,0c0.1-0.1,0.3-0.1,0.3,0
		l0,0c0,0,0,0,0,0L129.2,26.8L129.2,26.8z"/>
	<path class="st0" d="M136.3,26.8C136.4,26.9,136.4,26.9,136.3,26.8l0,0.1c0,0-0.1,0-0.1,0l-0.3-0.4c0,0,0-0.1,0-0.1l0,0
		c0,0,0.1,0,0.1,0L136.3,26.8L136.3,26.8z"/>
	<path class="st0" d="M127.3,29.7c-0.8-0.9,1.3-0.9,1.4-1.5c0,0,0-0.1,0.1-0.1c0.4-0.3,0.7-0.9,1.2-0.6c0,0,0.1,0,0.1,0
		c0.2-0.2,0.3-0.3,0.3-0.6c0,0,0-0.1,0.1-0.1c0,0,0.1,0,0.1,0.1c0,0.1,0.1,0.1,0.1,0.1c0.3-0.1,0.5-0.1,0.8,0c0.1,0,0.1,0.1,0,0.1
		l-0.1,0.1c-0.1,0.1-0.1,0.2,0,0.3c0.2,0.2,0.5,0.3,0.7,0.4c0.1,0,0.1,0,0.2-0.1l0.2-1.1c0-0.1,0.1-0.1,0.1-0.1c0.1,0,0.1,0,0.1,0.1
		c0,0.4,0.4,0.5,0.5,0.8c0.1,0.2,0.2,0.5,0.3,0.7c0,0,0,0.1,0.1,0.1c0.2,0.1,0.3,0.2,0.4,0.4c0,0,0,0.1,0.1,0.1
		c0.6,0.5,0.9,1.4,0.5,2.1c-0.3,0.5-0.4,1.4-1.2,1.4c-0.3,0-0.8,0-1.1-0.2c0,0-0.1,0-0.1-0.1c-0.1-0.4-0.3-0.6-0.8-0.6
		c0,0-0.1,0-0.1-0.1c-0.5-1-1.6-0.6-2.3-0.1c0,0-0.1,0-0.1,0c-0.2,0-0.4,0-0.6,0.1c-0.3,0.2-0.6,0.2-0.8-0.1c0,0,0-0.1,0-0.1
		l0.1-0.2c0,0,0-0.1,0-0.1c-0.1-0.1-0.1-0.3-0.2-0.4c0-0.3-0.1-0.4-0.2-0.6c0,0,0-0.1,0-0.1L127.3,29.7
		C127.4,29.8,127.4,29.8,127.3,29.7L127.3,29.7z"/>
	<path class="st0" d="M137.3,28c0,0-0.1,0-0.2-0.1c-0.1-0.1-0.1-0.2,0-0.2c0,0,0.1,0,0.2,0.1C137.4,27.9,137.4,28,137.3,28L137.3,28
		z"/>
	<path class="st0" d="M139.1,28.3c-0.1-0.1-0.1-0.1,0-0.1c0.1,0,0.3-0.3,0.4-0.2c0,0,0,0.1,0,0.1c-0.1,0.1-0.2,0.2-0.2,0.3
		c0,0,0,0.1-0.1,0.1C139.2,28.4,139.1,28.3,139.1,28.3L139.1,28.3z"/>
	<path class="st0" d="M137.2,29.1c0,0-0.2,0-0.4-0.1c-0.2-0.1-0.3-0.3-0.3-0.3c0,0,0.2,0,0.4,0.1C137.1,29,137.2,29.1,137.2,29.1
		L137.2,29.1z"/>
	<path class="st0" d="M69.9,37.8c-0.4-0.3-0.6-0.7-0.6-1.2c-0.1-1.5,0-3.1-0.3-4.6c0-0.2,0-0.2,0.1-0.1c0.7,0.9,1.5,1.8,2.2,2.8
		c0.6,0.8,0.7,1.3,0.8,2.3c0,0.9,0,1.9,0.1,2.8c0,0,0,0.1-0.1,0C71.4,39.1,70.7,38.5,69.9,37.8L69.9,37.8z"/>
	<path class="st0" d="M48.8,45.5c-2.5-0.2-2.9-3.1-2.1-5c1.2-2.6,2-5.2,2.9-7.9c0.1-0.3,0.3-0.5,0.6-0.6c0,0,0.1,0,0.1,0
		c0.3,0.3,0.3,0.5,0.2,0.9c-0.6,2.1-1.3,4.3-2,6.4c-0.3,0.8,0,1.9,0.8,2.3c1.1,0.6,1.9-0.1,2.7-0.8c0,0,0.1,0,0.1,0
		C52.2,42.8,51.3,45.7,48.8,45.5L48.8,45.5z"/>
	<path class="st0" d="M57.3,33.7c0.9,0.6,2.4,1.7,2.4,2.8c0,6.9,0,12.5-0.2,17c-0.1,2.3-1,5.1-1.8,7.4c-0.1,0.4-0.2,0.4-0.1,0
		c0.4-3.1,0.4-5.9,0.3-9.6C57.9,45.4,57.6,39.5,57.3,33.7C57.3,33.7,57.3,33.7,57.3,33.7L57.3,33.7z"/>
	<path class="st0" d="M132.6,52.9c-3-2.7-3.8-7.2-2.6-10.9c1.5-5.1,7-7.4,11.9-6.2c5.2,1.2,7.7,5.9,7.2,10.9c-0.4,3.3-2.1,6-5,7.4
		C140.4,56,135.7,55.6,132.6,52.9 M139.8,40c-6.3-0.7-7,10.1-1,10.8C145.2,51.6,145.9,40.7,139.8,40L139.8,40z"/>
	<path class="st0" d="M91.8,54.9c0,0,0-0.1,0-0.1c2.2-6.3,4.3-12.6,6.5-18.8c0-0.1,0.1-0.1,0.1-0.1h5.9c0.1,0,0.1,0,0.1,0.1
		l6.5,18.8c0,0.1,0,0.2-0.2,0.2c-1.6,0-3.1,0-4.7,0c-0.1,0-0.2-0.1-0.2-0.2c-0.3-1.1-0.6-2.2-1-3.2c0-0.1-0.1-0.1-0.2-0.1h-6.9
		c0,0-0.1,0-0.1,0.1l-1,3.3c0,0.1-0.1,0.2-0.2,0.2H92C91.9,55,91.9,54.9,91.8,54.9 M101.6,40.3c-0.1-0.1-0.1-0.1-0.2-0.1
		c0,0-0.1,0-0.1,0.1l-2.2,7.3c0,0,0,0,0,0h4.4c0.1,0,0.3-0.1,0.2-0.3L101.6,40.3C101.6,40.3,101.6,40.3,101.6,40.3L101.6,40.3z"/>
	<path class="st0" d="M121.3,40.1c0-0.1,0-0.1-0.1-0.1c-2.9,0-5.8,0-8.7,0c-0.2,0-0.3-0.1-0.3-0.4c0-1.1,0-2.2,0-3.3
		c0-0.3,0.1-0.4,0.4-0.4c5,0,9.9,0,14.9,0c0.2,0,0.3,0.1,0.3,0.3v3.7c0,0,0,0.1,0,0.1c0,0.1-0.1,0.1-0.1,0.2
		c-3,3.4-5.9,6.7-8.9,10.1c-0.1,0.1-0.2,0.3-0.1,0.4c0,0.1,0.1,0.1,0.2,0.1l8.8,0c0.1,0,0.2,0.1,0.2,0.2c0,1.2,0,2.4,0,3.5
		c0,0.4-0.2,0.5-0.6,0.5c-5,0-10,0-15,0c-0.2,0-0.4-0.2-0.4-0.4c0-1.2,0-2.5,0-3.7c0-0.1,0-0.2,0.1-0.2c2.9-3.3,5.9-6.6,8.8-10
		C121,40.5,121.3,40.3,121.3,40.1L121.3,40.1z"/>
	<path class="st0" d="M156.9,43.4C156.9,43.3,156.8,43.3,156.9,43.4c-0.1,3.7-0.1,7.4-0.1,11.1c0,0.3-0.1,0.5-0.4,0.5
		c-1.3,0-2.6,0-3.8,0c-0.4,0-0.6-0.2-0.6-0.6c0-6.1-0.1-12.2,0-18.3c0,0,0-0.1,0-0.1c0.1-0.1,0.2-0.2,0.4-0.2c2,0,3.2,0,3.8,0
		c0.2,0,0.4,0.1,0.5,0.3c2.3,3.5,4.5,6.9,6.8,10.4c0.3,0.4,0.7,0.2,0.7-0.3c0-3.3,0-6.7,0-10c0-0.3,0.2-0.4,0.5-0.4c1.3,0,2.6,0,4,0
		c0,0,0.1,0,0.1,0c0.1,0.1,0.2,0.2,0.3,0.3c0,0,0,0.1,0,0.1c0,6,0,12.1,0,18.1c0,0.4-0.2,0.6-0.6,0.6c-1.2,0-2.5,0-3.7,0
		c-0.3,0-0.4-0.2-0.6-0.4C161.8,50.8,159.3,47.1,156.9,43.4L156.9,43.4z"/>
	<path class="st0" d="M71.2,59c-1.5-0.5-1.2-1.9-1.3-3.1c0-1.8,0-3.6,0-5.5c0-2.4,0-4.8-0.1-7.3c0-0.1,0-0.1,0.1-0.1
		c1,0.6,2.3,1.8,2.3,3.1c0,3,0,6,0.1,9c0,1,0,1.9,0,2.9c0,0,0,0.1,0,0.1l-1.1,0.9C71.3,59,71.2,59,71.2,59L71.2,59z"/>
	<path class="st0" d="M65.4,45.3c0,1-0.8,1.8-1.8,1.8c-1,0-1.8-0.8-1.8-1.8c0-1,0.8-1.8,1.8-1.8C64.6,43.4,65.4,44.3,65.4,45.3
		L65.4,45.3z"/>
	<path class="st0" d="M69.2,52.5c-0.9-0.9-1.7-1.8-2.5-2.7c-0.2-0.2-0.3-0.2-0.2-0.5c0.2-1.3,0.5-2.5,0.9-3.8c0,0,0,0,0.1,0
		c0.7,0.5,1.3,1.1,1.6,1.9c0.1,0.3,0.2,0.7,0.2,1.4c0,1.2,0.1,2.5,0.1,3.7C69.3,52.5,69.2,52.5,69.2,52.5L69.2,52.5z"/>
	<path class="st0" d="M52.7,50.5l-2-1.8c0,0,0-0.1,0-0.1c0.6-0.8,1.3-1.5,2.1-2.2c0,0,0.1,0,0.2,0c0.8,0.5,1.4,1.2,2,1.9
		c0,0,0,0.1,0,0.1l-2,2.2C52.9,50.5,52.8,50.5,52.7,50.5L52.7,50.5z"/>
	<path class="st0" d="M45.1,55.1c-0.3-0.6-0.2-1.2,0-1.8c0.5-1.4,1-2.8,1.5-4.2c0-0.2,0.2-0.2,0.3-0.2c0.1,0,0.2,0.2,0.2,0.3
		c-0.4,1.2-0.7,2.4-1.1,3.6c-0.1,0.4,0,0.8,0.3,1c0.5,0.4,1,0.1,1.5-0.2c0.1,0,0.1,0,0.1,0c0.1,0.7-0.2,1.6-0.7,2
		C46.5,56.1,45.6,55.8,45.1,55.1L45.1,55.1z"/>
	<path class="st0" d="M67.9,57.2c1.5,1.3,3.2,2.5,4.9,3.6c0.4,0.3,0.8,0.6,1.2,1.1c1.9,2.4,1.1,5.5-1.2,7.3c0,0-0.1,0-0.1,0l0.1-2.5
		c0,0,0-0.1,0-0.1c1-1.2-0.2-2.2-1.1-2.9c-3.1-2.5-6.3-4.9-9.5-7.3c-0.1,0-0.1-0.1-0.1-0.2c-0.2-1.7,0-3.4,0.3-5c0,0,0.1-0.1,0.1,0
		c1.5,1.6,3.1,3,5,4.2c0.5,0.3,1,0.6,1.5,1c0.1,0.1,0.1,0.2,0,0.3L68,57C67.9,57.1,67.8,57.2,67.9,57.2L67.9,57.2z"/>
	<path class="st0" d="M72,59.4c0,0,0-0.1,0-0.1c0.7-0.5,1.5-1.3,2-2.1c0.4-0.7-0.7-1.3-0.7-2c0-1.2,0-2.4,0-3.6c0,0,0-0.1,0.1,0
		c0.4,0.6,0.9,1.3,1.1,1.9c1.1,2.5,0.8,4.9-0.7,7.2c0,0.1-0.1,0.1-0.2,0L72,59.4L72,59.4z"/>
	<path class="st0" d="M52.7,60.7c0.3-1.1,0.6-2.2,1.4-3.1c0.1-0.1,0.2-0.1,0.3,0c0.3,0.2,0.7,1.3,0.8,1.6c0.2,0.8-0.8,0.4-1.1,0.3
		c-0.1,0-0.1,0-0.2,0.1c-0.5,0.8-0.8,1.7-0.8,2.6c0,0,0,0.1-0.1,0.1l-0.2,0c0,0-0.1,0-0.1,0.1c0,0.4,0,0.6,0,0.7
		c0,0.6-0.7,0.5-0.7-0.1c0-0.8-0.1-2.8-1.3-2.9c-0.3,0-0.7,0-0.8-0.3c0-0.3,0.7-1.6,1.1-1.1c0.5,0.7,1.1,1.2,1.4,2
		C52.6,60.8,52.7,60.8,52.7,60.7L52.7,60.7z"/>
	<path class="st1" d="M107.9,75.3C107.9,75.3,107.8,75.3,107.9,75.3c-2.3,2.6-5.9,3-9,2.1c-6.6-2.1-7.9-11.2-3.9-16.1
		c1.9-2.3,5-3.3,8-3.2c4.1,0.1,7.8,2.6,8.2,6.9c0,0.4-0.3,0.4-0.6,0.4c-1.3,0-2.6,0-3.8,0c-0.2,0-0.4-0.2-0.5-0.4
		c-0.6-1.4-1.5-2.4-3.1-2.6c-4.7-0.4-5.9,4.5-4.8,8c0.6,1.7,1.7,2.6,3.4,2.8c1.6,0.2,3.3-0.3,4.2-1.7c0,0,0-0.1,0-0.1l-0.2-0.3
		c0,0-0.1-0.1-0.1-0.1l-2.7,0c-0.1,0-0.3-0.1-0.3-0.3c0-0.9,0-1.8,0-2.8c0-0.3-0.1-0.7,0.4-0.7c2.6,0,5.2,0,7.7,0
		c0.4,0,0.6,0.2,0.6,0.6c0,3.1,0,6.2,0,9.3c0,0.2-0.1,0.3-0.3,0.3c-0.9,0-1.8,0-2.7,0c-0.2,0-0.4,0-0.5-0.1c0,0-0.1-0.1-0.1-0.1
		L107.9,75.3L107.9,75.3z"/>
	<path class="st1" d="M142.2,77.4c-5.7,1.6-11.8-1.1-12.9-7.2c-0.7-3.9,0.4-8.1,3.8-10.4c2.6-1.7,6-2,8.9-1.2
		C151,61,151,74.8,142.2,77.4 M134.4,69.7c0.8,3.7,5.4,5.2,7.9,2.2c1.6-1.9,1.6-5.5,0.1-7.5c-1.1-1.5-3-2.1-4.8-1.6
		C134.6,63.5,133.8,66.9,134.4,69.7L134.4,69.7z"/>
	<path class="st0" d="M55.4,72.1c-3.2,1-6.7,0.1-8.4-3c-1.8-3.3-1.3-7.3,0.3-10.6c0-0.1,0.1-0.2,0.1-0.2c0,0,0.1,0,0.1,0
		c-1,3.6-0.8,9,3.7,10.2c1.5,0.4,3.1,0.2,4.5-0.3c0,0,0.1,0,0.1,0.1c-0.2,1.2-0.2,2.5,0,3.7c0,0,0,0.1-0.1,0.1l-0.2,0
		C55.5,72,55.4,72,55.4,72.1L55.4,72.1z"/>
	<path class="st1" d="M115.3,77.6c-0.3,0-0.7,0.1-0.7-0.4c0-6.2,0-12.4,0-18.6c0-0.3,0.1-0.3,0.3-0.3c1.6,0,3.1,0,4.6,0
		c0.1,0,0.2,0.1,0.2,0.2V73c0,0.1,0.1,0.2,0.2,0.2l8.6,0c0,0,0.1,0,0.1,0.1v4.1c0,0.1-0.1,0.2-0.2,0.2
		C124,77.6,119.7,77.6,115.3,77.6L115.3,77.6z"/>
	<path class="st1" d="M163.6,67.6c-0.1,0-0.1,0.1,0,0.1c3.8,1.2,4.7,5.8,1.8,8.4c-1,0.9-2.2,1.4-3.7,1.4c-2.6,0-5.9,0.1-9.9,0
		c-0.2,0-0.3-0.1-0.3-0.3c0-6.3,0-12.5,0-18.7c0-0.1,0.1-0.2,0.2-0.2c3,0,6.1,0,9.1,0c2.1,0,4.1,0.7,5.2,2.5
		c1.1,1.9,0.7,4.3-0.9,5.8C164.6,67,164.1,67.3,163.6,67.6 M156.4,62.4l0,3.6c0,0.1,0.1,0.2,0.2,0.2l2.9,0c1.1,0,1.9-0.8,1.9-1.8
		l0-0.4c0-1-0.9-1.8-1.9-1.8l-2.9,0C156.5,62.1,156.4,62.2,156.4,62.4 M156.4,69.8l0,3.8c0,0.1,0.1,0.2,0.2,0.2l3.3,0
		c1.2,0,2.2-0.9,2.2-2.1v-0.1c0-1.1-1-2.1-2.2-2.1l-3.3,0C156.5,69.6,156.4,69.7,156.4,69.8L156.4,69.8z"/>
	<path class="st1" d="M168.2,77.6c-0.4,0-0.5-0.3-0.4-0.6c2.1-6.1,4.2-12.2,6.4-18.4c0.1-0.2,0.2-0.2,0.4-0.3c1.9,0,3.7,0,5.6,0
		c0.1,0,0.2,0.2,0.3,0.3c2.1,6.1,4.3,12.3,6.4,18.5c0,0,0,0.1,0,0.1c-0.1,0.3-0.2,0.4-0.5,0.4c-1.4,0-2.7,0-4.1,0
		c-0.3,0-0.4-0.2-0.5-0.5c-0.3-0.9-0.5-1.8-0.8-2.7c-0.1-0.3-0.2-0.4-0.6-0.4c-2.3,0.1-4.4-0.1-6.4,0c0,0-0.1,0-0.1,0
		c-0.1,0.1-0.2,0.2-0.2,0.4c-0.3,1-0.6,2-0.9,3c0,0-0.1,0.1-0.1,0.1C171.1,77.6,169.7,77.6,168.2,77.6 M177.4,63.1
		c-0.1-0.1-0.2-0.1-0.2,0c-0.1,0.1-0.1,0.1-0.1,0.2c-0.7,2.3-1.4,4.6-2.1,6.8c0,0,0,0.1,0.1,0.1c1.3,0,2.6,0,4,0
		c0.3,0,0.6-0.2,0.5-0.5c-0.6-2.2-1.3-4.3-2-6.5C177.5,63.2,177.4,63.1,177.4,63.1L177.4,63.1z"/>
	<path class="st1" d="M190,77.6c-0.3,0-1.1,0.1-1.1-0.4c0-6.2,0-12.5,0-18.7c0-0.1,0.1-0.2,0.2-0.2h4.7c0.1,0,0.2,0.1,0.2,0.2
		l0,14.4c0,0,0,0.1,0,0.1c0.1,0.1,0.2,0.1,0.3,0.1c2.8,0,5.5,0,8.3,0c0,0,0.1,0,0.1,0.1v4.1c0,0.2-0.1,0.2-0.2,0.2
		C198.3,77.6,194.2,77.6,190,77.6L190,77.6z"/>
	<path class="st0" d="M70.5,63.4c0.1,0.1,0.1,0.1,0,0.2c-3.7,3.1-7.8,5.6-12.2,7.6c-0.1,0-0.1,0-0.1,0c-0.5-1.1-0.7-2.2-0.6-3.3
		c0-0.1,0-0.1,0.1-0.1c3.9-1.4,7.4-3.3,10.7-5.7c0,0,0.1,0,0.2,0L70.5,63.4L70.5,63.4z"/>
	<path class="st0" d="M71.1,63.8c0.3,0.2,1.3,0.9,1.3,1.3c0.2,3.6-0.3,7.8-2.1,11.1c0,0.1-0.1,0-0.1,0c0-3.7-0.1-7.4-0.1-11.1
		c0-0.2,0-0.3,0.2-0.5C70.5,64.3,70.7,64,71.1,63.8C71,63.8,71.1,63.8,71.1,63.8L71.1,63.8z"/>
	<path class="st0" d="M57.9,75.3c-0.8-0.6-1.3-1.5-1.6-2.6c-0.7-2.9-0.4-5.6,0.9-8.2c0.1-0.1,0.2-0.2,0.3-0.3c0,0,0.1,0,0.1,0
		c0,0.2,0,0.3,0,0.4c-0.4,2.3-1.3,5,0.3,7.1c1.5,2.1,4.4,1.2,6.3,0.3c1.8-0.8,3.6-1.8,5.3-3c0.1-0.1,0.2,0,0.2,0.1
		c0,0.7,0,1.5,0.1,2.2c0,0.1,0,0.3-0.2,0.3C67,73.8,61.1,78,57.9,75.3L57.9,75.3z"/>
</g>
</svg>
