<?xml version="1.0" encoding="utf-8"?>
<!-- Generator: Adobe Illustrator 24.3.0, SVG Export Plug-In . SVG Version: 6.00 Build 0)  -->
<svg version="1.1" id="Layer_1" xmlns="http://www.w3.org/2000/svg" xmlns:xlink="http://www.w3.org/1999/xlink" x="0px" y="0px"
	 viewBox="0 0 160.7 80" style="enable-background:new 0 0 160.7 80;" xml:space="preserve">
<style type="text/css">
	.st0{fill:#2C2863;}
	.st1{fill:#9F1F20;}
</style>
<g>
	<path class="st0" d="M48.3,6.7c-0.3-0.1-0.4,0.2-0.5,0.2c-0.1,0-0.1-0.1,0-0.1l0.2-0.2c0,0,0-0.1,0-0.1c0,0-0.1,0-0.1,0
		c-0.1,0.1-0.3,0.1-0.4,0c0,0,0,0-0.1,0c0,0,0,0,0,0.1l0.2,0.4c0,0,0,0.1,0,0.1l-0.2,0.3c0,0,0,0.1,0,0.1c0.1,0.1,0.2,0.2,0.2,0.3
		c0,0,0,0.1,0,0.1C47.2,8,47,8.2,46.7,8.3c0,0-0.1,0,0,0.1l0.5,0.4c0,0,0.1,0.1,0.1,0.1c0,0.1,0.1,0.2,0.3,0.3c0,0,0.1,0.1,0,0.1
		c-0.1,0.1-0.3,0.1-0.4,0c0,0-0.1,0-0.1,0c0,0.2,0,0.3,0.2,0.3c0,0,0.1,0.1,0,0.1L47,9.9c-0.1,0.1-0.2,0-0.2-0.1l0.1-0.2
		c0-0.1-0.1-0.1-0.1-0.1l-0.1,0.1c0,0-0.1,0-0.1,0c0-0.2-0.1-0.2-0.3-0.2c0,0-0.1,0-0.1-0.1V9.2c0,0,0-0.1-0.1-0.1l-0.4,0.2
		c0,0,0,0,0,0.1c0.1,0.3-0.2,0.3-0.4,0.5c-0.2,0.3-0.6,1-0.2,1.3c0,0,0.1,0.1,0.1,0.1l0.1,0.3c0,0,0,0.1,0.1,0.1
		c0.8,0,0.9,0.9,1.7,0.7c0.1,0,0.1,0,0.1,0.1c0,0.3,0,0.7,0.5,0.6c0,0,0.1,0,0-0.1l-0.1-0.4c0,0,0,0,0-0.1l0.3-0.1
		c0,0,0.1,0,0.1-0.1c0.2-0.4,0.3-0.8-0.1-1.1c0,0,0-0.1,0-0.1l0.2-0.4c0,0,0-0.1,0-0.1L48,10.5c0,0,0-0.1,0-0.1
		C48,10.2,48,10,48,9.8c0,0,0-0.1,0.1-0.1c0.2,0,0.3,0,0.4,0.1c0,0,0.1,0,0.1,0l0.1-0.1c0,0,0.1,0,0.1,0c0.2,0.1,0.3,0.2,0.5,0.4
		c0,0,0.1,0.1,0.1,0.1c0.2,0.1,0.4,0.2,0.6,0.4c0,0,0,0.1,0,0.1l-0.3,0c0,0-0.1,0,0,0.1l0.2,0.5c0,0,0,0.1,0.1,0
		c0.4-0.1,0.4-0.5,0.5-0.8c0,0,0.1,0,0.1,0c0.3,0.4,0.5,0.9,0.6,1.5c0,0,0,0.1,0,0.1c0.2,0.2,0.4,0.3,0.6,0.4c0,0,0.1,0.1,0,0.1
		c-0.1,0.2,0,0.3,0.2,0.3c0,0,0.1,0,0.1,0.1c0.1,0.3,0.1,0.6,0,0.9c0,0,0,0.1,0,0.1c0.1,0.1,0.2,0.2,0.3,0.1c0,0,0.1,0,0.1,0
		c0,0.2,0.1,0.4,0.3,0.5c0,0,0,0.1,0,0.1c-0.2,0.3-0.6,0.1-0.8,0c0,0-0.1,0-0.1,0c-0.2,0-0.5,0-0.7-0.1c0,0-0.1,0-0.1,0.1l0.2,0.4
		c0,0,0,0.1,0,0.1l-1,0.6c0,0-0.1,0-0.1-0.1l0-0.3c0-0.1,0-0.1-0.1,0l-0.7,0.4c0,0,0,0.1,0,0.1c0.2,0.3-0.4,0.5-0.6,0.6
		c0,0-0.1,0.1-0.1,0.1c0,0.2-0.2,0.4-0.4,0.4c0,0,0,0,0,0.1l0.1,0.4c0,0.1,0,0.1,0,0.1l-0.9,0.8c-0.1,0.1-0.1,0.2,0,0.3
		c0.2,0.3,0.2,0.6,0.3,0.9c0,0.1-0.1,0.2-0.2,0.1c-0.2-0.2-0.3-0.4-0.3-0.7c0,0,0-0.1-0.1-0.1l-0.9-0.2c0,0-0.1,0-0.1,0
		c-0.2,0.3-0.5,0.3-0.8,0.1c0,0-0.1,0-0.1,0c-0.2,0.1-0.7,0.4-0.6,0.6c0,0,0,0.1,0,0.1c-0.2,0.5-0.1,0.9,0.2,1.3c0,0,0.1,0,0.1,0.1
		c0.3,0,0.5,0,0.7-0.1c0,0,0.1,0,0.1-0.1c0.1-0.4,0.4-0.5,0.8-0.5c0.1,0,0.2,0.1,0.1,0.2l-0.1,0.2c0,0,0,0.1,0,0.1
		c0,0.2-0.1,0.3-0.2,0.4c0,0,0,0.1,0,0.1c0.3,0,0.6,0.1,0.8,0.2c0.1,0.1,0.1,0.2,0.1,0.3l-0.2,0.3c0,0,0,0.1,0,0.1
		c0.1,0.2,0.3,0.4,0.5,0.6c0,0,0.1,0,0.1,0c0.2-0.2,0.5-0.2,0.7,0c0,0.1,0.1,0,0.1,0c0.1-0.5,0.6-0.3,0.8-0.7c0,0,0.1,0,0.1,0
		l0.3,0.1c0,0,0.1,0,0.1,0c0.2,0,0.3,0.1,0.2,0.2c0,0,0,0.1,0.1,0.1c0.2-0.1,0.3,0,0.5,0c0,0,0.1,0,0.1,0c0.1-0.1,0.3-0.1,0.4,0
		c0,0,0.1,0,0.1,0l0.1-0.2c0,0,0,0,0.1,0l0,0c0,0,0.1,0,0,0.1L51.2,23c0,0,0,0.1,0.1,0.1c0.2,0,0.4,0.1,0.5,0.3c0,0,0.1,0.1,0.1,0
		c0.2-0.1,0.3-0.1,0.4,0.1c0,0,0.1,0,0.1,0.1c0.4,0.1,0.6,0.3,0.8,0.6c0,0,0,0.1,0.1,0.1c0.1,0.1,0.1,0.2,0.1,0.3
		c0,0.1,0,0.1,0.1,0.1c0.3,0.1,0.5,0.2,0.8,0.3c0.4,0.2,0.7,0.2,1.1,0.3c0,0,0.1,0,0.1,0.1c0.1,0.2,0.3,0.3,0.6,0.4
		c0,0,0.1,0,0.1,0.1c0.3,0.6-0.3,1.1-0.7,1.5c0,0,0,0.1,0,0.1c0.1,0.5-0.1,1.2-0.4,1.6c-0.4,0.4-1.6,0.3-1.3,1.1c0,0,0,0.1,0,0.1
		c-0.2,0.3-0.3,0.6-0.5,0.8c-0.3,0.3-0.5,0.9-1.1,0.6c0,0-0.1,0-0.1,0l0.2,0.4c0,0,0,0.1,0,0.1c-0.1,0.4-0.6,0.5-0.9,0.5
		c0,0,0,0,0,0l0,0.3c0,0,0,0.1-0.1,0.1c-0.1,0.1-0.3,0.1-0.4,0c0,0-0.1,0-0.1,0.1c0,0.2,0.1,0.2,0.3,0.2c0.1,0,0.1,0.1,0,0.1
		l-0.2,0.1c0,0-0.1,0.1-0.1,0.1c0,0.3-0.1,0.4-0.4,0.5c-0.1,0-0.1,0.2,0,0.3l0.2,0.1c0,0,0.1,0.1,0,0.1c0,0.2-0.2,0.3-0.3,0.4
		c0,0-0.1,0.1-0.1,0.1c0,0.2-0.1,0.3-0.2,0.3c0,0-0.1,0-0.1,0.1c0,0.1,0,0.3,0.1,0.4c0,0,0,0.1,0,0.1c0,0.4,0.3,0.6,0.6,0.7
		c0,0,0,0.1,0,0.1l-0.5,0.2c0,0-0.1,0-0.1,0c-0.4-0.1-0.8-0.4-1.1-0.7c0,0,0-0.1,0-0.1l0.1-0.1c0,0,0-0.1,0-0.1L48.6,36
		c0,0,0-0.1,0-0.1l0.1-0.1c0,0,0,0,0-0.1L48.4,35c0,0,0-0.1,0-0.1l0.3-0.3c0.1-0.1,0-0.2-0.1-0.1l-0.3,0.1c0,0,0,0,0,0c0,0,0,0,0,0
		c0,0,0,0,0,0c0.2-0.1,0.3-0.3,0.3-0.5c0,0,0-0.1,0.1-0.1l0.2-0.1c0,0,0-0.1,0-0.1c0-0.1-0.1-0.1-0.2-0.1c0,0-0.1,0-0.1-0.1l0.2-1
		c0,0,0-0.1,0-0.1c-0.2-0.4,0.1-0.9,0.3-1.3c0,0,0-0.1,0-0.1c0-0.2,0-0.4,0.1-0.7c0.1-0.3,0.1-0.7,0.2-1.4c0.1-0.8-0.4-1.1-1-1.4
		c0,0-0.1,0-0.1-0.1c-0.2-0.5-0.4-0.9-0.6-1.3c-0.2-0.2-0.7-0.5-0.2-0.8c0.1,0,0.1-0.1,0-0.2c-0.1,0-0.2-0.1-0.3-0.2
		c0,0,0-0.1,0-0.1l0.2,0c0,0,0.1,0,0.1-0.1c0.2-0.3,0.3-0.6,0.5-0.9c0.2-0.3-0.1-0.8-0.5-0.5c0,0-0.1,0-0.1,0c-0.5-0.2-1-0.6-1.3-1
		c0,0-0.1,0-0.1-0.1c-0.4-0.1-0.7-0.2-1-0.5c0,0-0.1,0-0.1,0c-0.2,0-0.5,0.1-0.7,0c-0.5-0.2-0.9-0.4-1.2-0.5
		c-0.2-0.1-0.2-0.3-0.2-0.5c0,0,0-0.1,0-0.1c-0.2-0.3-0.4-0.5-0.6-0.7c-0.1-0.1-0.2,0-0.2,0.1l0.1,0.2c0,0.1,0,0.1-0.1,0.1
		c-0.3-0.1-0.5-0.4-0.6-0.6c0,0,0-0.1-0.1-0.1l-0.3-0.2c0,0,0-0.1,0-0.1c0.1-0.2,0-0.3-0.1-0.4c0,0,0,0-0.1-0.1
		c-0.1-0.4-0.2-0.6-0.5-0.8c-0.3-0.2-0.4-0.3-0.6-0.5c0,0-0.1,0-0.1,0c-0.1,0.2-0.2,0.5-0.2,0.7c-0.1,1.2-0.2,2.3-0.2,3.5
		c0,0.1,0,0.2,0,0.3c0,0.1,0,0.1,0,0l0-0.1c0,0-0.1-0.1-0.1,0c-0.6,0.1-1.1,0-1.5-0.4c-1.7-1.5-2.3-3.4-2.5-5.6
		c-0.5-4.5,0.7-9,4.2-12c0.2-0.2,0.4-0.3,0.7-0.4c25.1-9.3,52.6,2.4,63.2,26.8c0,0.1,0,0.1-0.1,0.1l-4.7,0c-0.1,0-0.1,0-0.1-0.1
		c-0.6-1.1-1.1-2.1-1.7-3.1c-2-3.5-4.5-6.7-7.5-9.7c-0.1-0.1-0.2-0.2-0.2-0.2c0,0-0.1,0-0.1,0v0.4c0,0,0,0.1-0.1,0.1
		c0,0-0.1,0-0.1,0c0,0-0.1,0-0.1,0c-0.5,0.3-1,0.3-1.5,0.7c0,0-0.1,0-0.1,0c0-0.1-0.1-0.2-0.2-0.2c0,0-0.1-0.1,0-0.1l0.2-0.1
		c0,0,0.1,0,0.1-0.1c0.2-0.3,0.5-0.4,0.8-0.4c0,0,0.1,0,0.1,0l0.6-0.5c0.1,0,0.1-0.1,0-0.2c-0.4-0.4-0.8-0.8-1.3-1
		c-0.1-0.1-0.2,0-0.3,0.1c-0.1,0.3-0.3,0.5-0.5,0.6c0,0,0,0.1,0,0.1l0.3,0.8c0,0,0,0.1,0,0.1c-0.1,0.1-0.3,0.1-0.5,0c0,0,0,0,0-0.1
		c0.1-0.2,0-0.4-0.2-0.4c0,0-0.1,0-0.1-0.1l-0.1-0.4c0,0-0.1,0-0.1,0c-0.2,0.1-0.4,0.2-0.6,0.2c0,0-0.1,0,0,0.1
		c0.1,0.1,0.2,0.2,0.4,0.2c0.1,0,0.1,0.1,0,0.2l-0.6,0.4c0,0,0,0.1,0,0.1l0.2,0.1c0,0,0,0.1,0,0.1c0,0.2,0.1,0.4,0.3,0.5
		c0,0,0,0.1,0,0.1L85,18.7c0,0,0,0,0,0.1c0.3,0.3,0,0.6-0.2,0.9c-0.5,0.6-0.9,0.8-1.7,1c0,0-0.1,0,0,0.1l0.1,0.2c0,0,0,0.1,0,0.1
		c-0.1,0.2-0.3,0.3-0.5,0.2c-0.1,0-0.2,0.1-0.1,0.2c0.2,0.3,0.6,0.8,0.4,1.1c0,0,0,0-0.1,0.1c-0.3,0.1-0.5,0.3-0.7,0.6
		c0,0-0.1,0-0.1,0v-0.2c0,0,0-0.1,0-0.1c-0.2-0.2-0.4-0.5-0.6-0.5c0,0-0.1,0-0.1,0c-0.4,0.7,0.1,0.9,0.5,1.4c0,0,0,0.1,0,0.1l0,0.2
		c0,0,0,0.1,0,0.1c0.1,0.1,0.1,0.1,0.2,0.2c0,0,0,0.1,0,0.1h-0.2c0,0-0.1,0-0.1,0.1l0.2,0.5c0,0,0.1,0.1,0.1,0l0.2-0.1
		c0,0,0,0,0.1,0l0.1,0.1c0,0,0,0.1,0,0.1c-0.2,0.1-0.2,0.2-0.1,0.4c0,0,0,0.1,0,0.1l-0.2,0.1c0,0-0.1,0-0.1,0
		c-0.4-0.5-0.7-0.9-1.1-1.4c-0.1-0.2-0.4-0.3-0.5-0.5c0-0.1,0.1-0.3,0.2-0.2c0.2,0.1,0.7,0.5,0.9,0.5c0.1,0,0.1-0.1,0-0.1
		c-0.1-0.1-0.2-0.3-0.2-0.4c0,0,0-0.1,0-0.1c-0.3-0.2-0.4-0.5-0.2-0.9c0,0,0-0.1,0-0.1l-0.2-0.9c0-0.1-0.1-0.1-0.1-0.1l-0.3,0.2
		c-0.1,0.1-0.2,0-0.2-0.2l0.1-0.2c0,0,0-0.1,0-0.1c-0.2-0.2-0.4-0.5-0.5-0.8c0,0-0.1,0-0.1,0c-0.2,0.2-0.4,0.2-0.7,0.2
		c0,0-0.1,0-0.1,0.1c0,0.2,0,0.3-0.2,0.3c0,0-0.1,0-0.1,0.1c-0.3,0.3-0.6,0.6-0.9,0.8c0,0,0,0.1,0,0.1c0.1,0.5-0.1,0.9-0.5,1.3
		c0,0-0.1,0-0.1,0c-0.1-0.2-0.2-0.4-0.2-0.6c0,0,0-0.1,0-0.1c-0.1-0.1-0.2-0.2-0.2-0.4c0,0,0-0.1,0-0.1c-0.3-0.4-0.5-0.8-0.3-1.3
		c0-0.1,0-0.1-0.1-0.1c-0.2,0.1-0.7,0.2-0.5-0.3c0,0,0-0.1,0-0.1L75,20.2c0,0-0.1,0-0.1-0.1c0-0.2-0.2-0.3-0.4-0.2
		c-0.5,0.1-1,0-1.5-0.1c-0.1,0-0.2,0.1-0.1,0.1c0.1,0.3,0.6,0.3,0.6,0.6c0,0,0,0.1,0,0.1c-0.3,0.5-0.5,0.8-1,1
		c-0.7,0.3-1.2,0.7-2,0.8c-0.1,0-0.1,0.1-0.1,0.2c0.3,0.3,0.8,0,1.2-0.1c0.2-0.1,0.4,0,0.3,0.3c-0.3,0.9-0.8,1.3-1.4,1.8
		c-0.6,0.5-0.9,0.9-0.7,1.7c0,0.1,0,0.2,0.2,0.4c0,0,0,0.1,0,0.1C70,27,70,27.3,70,27.7c0,0,0,0.1,0,0.1l-0.9,0.5
		c-0.1,0.1-0.1,0.2-0.1,0.3c0.1,0.2,0.2,0.4,0.1,0.7c0,0,0,0.1-0.1,0.1c-0.3,0.1-0.4,0.2-0.4,0.6c0,0,0,0.1,0,0.1
		c-0.2,0.3-0.4,0.5-0.5,0.8c-0.2,0.2-0.4,0.3-0.6,0.5c0,0-0.1,0-0.1,0c-0.5-0.1-1.2,0.4-1.5-0.1c0,0,0-0.1,0-0.1
		c0-0.9-0.7-1.3-0.6-2.2c0,0,0,0,0-0.1l-0.5-0.8c0,0,0-0.1,0-0.1c0-0.4,0.1-0.8,0.3-1.1c0.1-0.2,0.1-0.3-0.1-0.4c0,0,0-0.1,0-0.1
		l0.1-0.1c0,0,0-0.1,0-0.1c-0.1-0.5-0.4-0.9-0.8-1.1c0,0,0-0.1,0-0.1l0.3-0.7c0,0,0-0.1,0-0.1l-0.3-0.3c0,0-0.1,0-0.1,0
		c-0.3,0.1-0.4,0-0.6-0.2c0,0,0-0.1-0.1-0.1c-0.4-0.1-0.8,0-1.1,0.2c0,0-0.1,0-0.1,0l-1.2,0c0,0-0.1,0-0.1,0
		c-0.3-0.2-0.5-0.3-0.7-0.5c0,0,0,0-0.1-0.1c-0.1-0.3-0.3-0.5-0.6-0.7c-0.2-0.2-0.2-0.4-0.1-0.7c0.1-0.4,0.1-0.8,0-1.1
		c0,0,0-0.1,0-0.1c0.2-0.7,0.7-1.2,1.3-1.6c0.1,0,0.1-0.1,0-0.2c-0.3-0.2-0.1-0.4,0.1-0.5c0.2-0.1,0.9-0.8,0.3-0.9
		c-0.2-0.1-0.3-0.1-0.4-0.2c0,0,0-0.1,0-0.1c0.1-0.3,0.1-0.7,0-1c0-0.1,0.1-0.3,0.2-0.2l1,0.1c0,0,0.1,0,0.1,0
		c0.4-0.5,0-0.9-0.5-1.1c-0.1,0-0.1-0.1,0-0.2c0.1-0.1,0.2-0.1,0.4-0.1c0,0,0.1,0,0.1,0l0.1-0.2c0,0,0,0,0.1,0
		c0.4,0.2,0.5-0.3,0.8-0.4c0,0,0.1,0,0.1-0.1c0.2-0.4,0.5-0.6,0.9-0.7c0.2,0,0.2-0.2,0.1-0.3c-0.3-0.3-0.2-0.8,0.2-0.9
		c0,0,0.1,0,0.1,0c0.1,0.1,0.1,0.1,0.2,0.1c0.1,0,0.1,0,0-0.1l-0.2-0.5c0,0-0.1,0-0.1,0L64,11.5c-0.1,0.1-0.3,0.1-0.4-0.1
		c-0.2-0.4-0.3-0.9-0.2-1.3c0,0,0-0.1,0-0.1l0.4-0.5c0,0,0.1-0.1,0.1-0.1c0.3-0.1,0.5-0.3,0.6-0.6c0,0,0-0.1,0.1-0.1l0.1-0.1
		c0,0,0.1-0.1,0.1-0.1c0.1-0.4,0.3-0.8,0.6-1.2c0,0,0-0.1-0.1-0.1l-0.2,0.1c-0.1,0-0.1-0.1-0.1-0.1c0.4-0.4,0.9-0.8,1.5-1.1
		c0,0,0.1,0,0.1-0.1c0.1-0.2,0.2-0.2,0.4-0.2c0,0,0.1,0,0.1,0l0,0c0,0,0-0.1,0-0.1c-2.8-0.6-5.7-0.9-8.6-1c-0.1,0-0.1,0-0.1,0.1
		L58.5,5c0,0,0,0.1,0,0.1l-0.2,0c0,0-0.1,0,0,0.1c0.2,0.2,0.3,0.4,0.3,0.7c0,0,0,0.1-0.1,0.1l-0.2,0.1c0,0-0.1,0,0,0.1l0.1,0.2
		c0,0,0,0.1,0,0.1c-0.6,0.4-0.8,0.8-1.6,0.9c0,0-0.1,0-0.1,0.1c-0.4,0.5-0.6,1.2-1.3,1.1c0,0-0.1,0-0.1,0C55,8.8,54.9,9.1,55,9.4
		c0,0,0,0.1,0,0.1l-0.2,0.2c0,0,0,0.1,0,0.1c0,0.3,0,0.6-0.2,0.9c-0.1,0.1-0.3,0.2-0.4,0l-0.2-0.3c0,0-0.1,0-0.1,0
		c-0.1,0.1-0.1,0.1-0.2,0.1c0,0-0.1,0-0.1-0.1c0-0.2-0.2-0.4-0.4-0.5c0,0-0.1,0-0.1-0.1c-0.1-0.2-0.4-0.9-0.1-1c0,0,0-0.1,0-0.1
		c-0.2-0.1-0.3-0.3-0.3-0.6c0,0,0-0.1,0-0.1l-0.1-0.1c0,0,0-0.1,0-0.1c0.1-0.2,0.2-0.5,0.2-0.8c0,0,0-0.1,0.1-0.1
		c0.2,0,0.3,0,0.3-0.2c0-0.1-0.1-0.2-0.2-0.1c-0.4,0.4-0.6-0.4-0.2-0.8c0.1-0.1,0-0.2-0.1-0.3l-0.3-0.1c0,0-0.1,0,0-0.1l0-0.2
		c0,0,0-0.1-0.1-0.1c-0.8,0.1-1.7,0.3-2.4,0.4c-0.1,0-0.1,0-0.1,0c0,0-0.1,0.1,0,0.1L50,6.2c0,0,0,0.1,0,0.1c-0.1,0.2,0,0.3,0.2,0.4
		c0,0,0,0.1,0,0.1l-0.2,0c-0.1,0-0.1,0.2-0.1,0.2c0.2,0.2,0.6,0.3,0.7,0.5c0,0,0,0.1,0.1,0.1C50.9,7.7,51,7.8,51.2,8
		c0,0,0,0.1,0,0.1c-0.2,0-0.2,0.1-0.2,0.3c0,0,0,0.1-0.1,0.1l-0.2,0c0,0,0,0-0.1,0.1l0,0.2c0,0,0,0.1-0.1,0l-0.2-0.1
		c-0.1-0.1-0.2,0-0.2,0.1c0.1,0.2,0.5,0.5,0.2,0.7c0,0,0,0.1,0,0.1c0,0,0.1,0.1,0.1,0.2c0,0.1,0,0.1-0.1,0l-0.2-0.1c0,0-0.1,0-0.1,0
		l0,0.2c0,0.1-0.1,0.1-0.1,0.1c-0.6-0.2-1-0.5-1.4-1c-0.1-0.1-0.2-0.1-0.3,0c-0.2,0.1-0.3,0.1-0.5,0c0,0,0-0.1,0-0.1
		c0-0.1,0-0.2,0.1-0.3c0,0,0.1-0.1,0.1-0.1l0.6,0c0,0,0.1-0.1,0-0.1l-0.1-0.1c0,0,0-0.1,0-0.1L49,7.7c0.1-0.1,0-0.2-0.1-0.2
		c-0.2,0-0.3,0.1-0.4,0.2c-0.1,0.2-0.4,0.1-0.4-0.1c0,0,0-0.1,0-0.1c0-0.1,0.5-0.4,0.4-0.5c0,0-0.1,0-0.1,0C48.4,7,48.3,7,48.1,7
		c0,0-0.1,0-0.1,0.1c0,0.1-0.1,0.1-0.1,0.2c0,0-0.1,0-0.1,0c-0.1,0-0.1-0.1,0-0.1c0,0,0.1,0,0.1-0.1C48.1,7,48.2,6.9,48.3,6.7
		C48.3,6.8,48.3,6.7,48.3,6.7L48.3,6.7z"/>
	<path class="st0" d="M24.9,16.5c0-0.1-0.1-0.1-0.2-0.1c-0.2,0.3-0.4,0.6-0.6,0.9c-1.3,2.2-0.3,4.3,1,6.1c3.2,4.3,6.5,8.6,9.7,13
		c4.8,6.3,9.4,13.2,9.4,21.6c0,5.9-3.5,11.7-7.8,15.7c-6,5.7-13.6,6.4-21.5,4.8c-0.2-0.1-2.2-0.4-2.2-0.6c0,0,0,0,0,0
		c9,1.4,18.9-1.4,24.5-8.9c4.5-6.1,4.9-14.3,1.3-20.8c-0.4-0.8-0.9-1.6-1.6-2.6c-3.8-5.6-8.1-10.9-12-16.4c-1.4-2-2.6-3.9-3.6-6.1
		c-0.9-2-0.9-3.9-0.4-6c1-4.2,3.1-7.6,6.4-10.3c0.1-0.1,0.2-0.1,0.2-0.1c0.1,0,0.2,0.1,0.2,0.2c0.1,0.9,0.1,1.8,0.2,2.7
		c0,0.7,0.1,1.4,0.1,2.2c0.1,4.9,0.1,9.8,0.1,14.7c0,0,0,0.1-0.1,0.1c0,0-2.4-3.2-2.7-3.5c-0.4-0.6-0.5-1.1-0.6-1.8
		C25,19.6,25,18,24.9,16.5L24.9,16.5z"/>
	<path class="st0" d="M58.1,8.5l-0.1-0.1c0,0,0-0.1,0-0.1L58.3,8c0,0,0.1,0,0.1,0l0.1,0.2c0,0,0.1,0.1,0.1,0l0.3-0.1
		c0,0,0.1,0,0.1,0c0.2,0,0.4,0,0.5-0.2c0,0,0.1,0,0.1,0L60,8.6c0,0,0,0.1,0,0.1c-0.2,0.3-0.5,0.5-0.9,0.7c-0.2,0.1-0.7-0.1-0.9-0.1
		c-0.1,0-0.1-0.1,0-0.1L58.4,9c0,0,0-0.1,0-0.1l-0.3,0c0,0-0.1,0,0-0.1L58.1,8.5C58.1,8.6,58.1,8.6,58.1,8.5L58.1,8.5z"/>
	<path class="st0" d="M48.3,9.3c0,0.1-0.1,0.1-0.2,0.2c-0.1,0-0.2,0-0.3,0c0-0.1,0.1-0.1,0.2-0.2C48.2,9.3,48.3,9.3,48.3,9.3
		L48.3,9.3z"/>
	<path class="st0" d="M61.3,10.2C61.3,10.2,61.3,10.2,61.3,10.2L61.3,10.2c-0.2,0-0.3-0.1-0.2-0.2l0,0c0-0.1,0.1-0.2,0.2-0.2l0,0
		c0,0,0,0,0,0.1L61.3,10.2L61.3,10.2z"/>
	<path class="st0" d="M47.6,10.2c-0.1,0-0.1-0.1-0.1-0.2c0-0.1,0.1-0.2,0.2-0.1c0.1,0,0.1,0.1,0.1,0.2
		C47.7,10.1,47.7,10.2,47.6,10.2L47.6,10.2z"/>
	<path class="st0" d="M50.5,10.2C50.5,10.2,50.5,10.2,50.5,10.2c-0.2,0-0.2-0.1-0.2-0.1c0-0.1,0.1-0.1,0.1-0.1
		C50.6,10,50.6,10.1,50.5,10.2L50.5,10.2z"/>
	<path class="st0" d="M62.4,10.6c0,0.1-0.1,0.2-0.2,0.2c-0.1,0-0.2-0.1-0.2-0.2c0-0.1,0.1-0.2,0.2-0.2
		C62.4,10.4,62.4,10.5,62.4,10.6L62.4,10.6z"/>
	<path class="st0" d="M61.6,13.3c0-0.1-0.1-0.1-0.1-0.1c-0.2,0.1-0.7,0.6-0.9,0.3c0,0,0-0.1,0-0.1c0.1-0.2,0.1-0.4,0.1-0.6
		c0,0,0-0.1,0-0.1l0.2-0.1c0,0,0.1,0,0.1-0.1c0.1-0.2,0.2-0.3,0.5-0.2c0,0,0.1,0,0.1-0.1c0-0.2,0-0.4-0.2-0.5c0,0,0-0.1,0-0.1l0-0.4
		c0,0,0,0,0,0c0.2,0,0.5-0.1,0.7-0.2c0.1-0.1,0.2,0,0.1,0.1l-0.1,0.3c0,0,0,0.1,0,0.1l0.3,0.1c0,0,0.1,0.1,0,0.1L62,12.1
		c0,0,0,0.1,0,0.1c0.2,0,0.3,0.1,0.2,0.3c0,0,0,0.1,0,0.1c0.2,0.1,0.3,0.2,0.3,0.4c0,0,0,0.1,0.1,0.1l0.2,0.1c0,0,0,0,0,0.1
		l-0.2,0.4c0,0-0.1,0.1-0.1,0.1L62,13.9c0,0-0.1,0-0.1,0C61.7,14,61.6,14,61.5,14c-0.1,0-0.1-0.1,0-0.1l0.3-0.2c0.1,0,0-0.1,0-0.1
		l-0.2,0c0,0-0.1-0.1,0-0.1C61.5,13.4,61.6,13.4,61.6,13.3L61.6,13.3z"/>
	<path class="st0" d="M47.9,11.9c0,0.1,0,0.2-0.1,0.2c-0.1,0.1-0.2,0.1-0.2,0c0-0.1,0-0.2,0.1-0.2C47.8,11.9,47.9,11.9,47.9,11.9
		L47.9,11.9z"/>
	<path class="st0" d="M20,12c-0.5,2.3-0.7,4.5-0.5,6.7c0.2,2,0.4,3.9,0.6,5.9c0.3,2.2,0.2,4.2-0.8,6.1c0,0,0,0-0.1,0.1l0,0
		c0,0-0.1,0-0.1-0.1c0-0.2,0.1-0.5,0.1-0.7c0-2-0.1-4-0.5-6C18.2,21,16.4,13.8,20,12C20,11.9,20,11.9,20,12L20,12z"/>
	<path class="st0" d="M13,22.3c-3.7,2.6,5.1,9.7,6.9,11.2c3.2,2.5,6.3,4.9,9.3,7.8c5.9,5.9,9.2,14,5.9,22.2
		c-1.1,2.8-2.7,5.3-4.7,7.5c0,0,0,0,0,0c0,0,0,0,0,0c2.2-4.6,3.9-9.8,3.7-14.9c-0.2-5.1-2.6-9.3-6.2-12.8c-2.1-2-4.3-3.8-6.7-5.5
		c-2.5-1.7-5-3.2-7.2-5.2c-3.6-3.2-5.5-8-3.5-12.7c0.9-2.1,2.4-3.8,4.5-5.1c0.3-0.2,0.6-0.3,0.9-0.4c0,0,0.1,0,0.1,0.1l0.2,14.5
		c0,0.1,0,0.1-0.1,0c-1.1-1-2.7-2.5-2.8-4.1C13.2,24,13.1,23.2,13,22.3C13.1,22.3,13.1,22.3,13,22.3L13,22.3z"/>
	<path class="st0" d="M48.1,20.1c0,0-0.1,0-0.2-0.1c-0.1-0.1-0.1-0.1,0-0.2c0,0,0.1,0,0.2,0.1C48.2,20,48.2,20.1,48.1,20.1
		L48.1,20.1z"/>
	<path class="st0" d="M48.5,20c0,0-0.1,0-0.1,0c0,0-0.1-0.1,0-0.1c0,0,0.1,0,0.1,0C48.6,19.9,48.6,20,48.5,20L48.5,20z"/>
	<path class="st0" d="M84.9,20.5c-0.1,0-0.1-0.2,0-0.4c0.1-0.2,0.2-0.3,0.3-0.2c0.1,0,0.1,0.2,0,0.4C85.1,20.4,84.9,20.5,84.9,20.5
		L84.9,20.5z"/>
	<path class="st0" d="M49,20.9c0.2,0,0.4,0,0.6,0.1c0.1,0,0.1,0.1,0.1,0.2c0,0.1-0.1,0.1-0.1,0.1l-0.9,0.1c-0.1,0-0.1-0.1-0.1-0.1
		l0.1-0.2c0,0,0-0.1,0-0.1c-0.6,0.1-1-0.1-1.5-0.4c0,0-0.1,0-0.1,0c-0.1,0-0.4,0.1-0.4,0c0,0,0-0.1,0-0.1c0.8-0.2,1,0.1,1.7,0.3
		c0.1,0,0.2,0.1,0.3,0.2C49,20.9,49,20.9,49,20.9L49,20.9z"/>
	<path class="st0" d="M50,21.3C50,21.3,50,21.2,50,21.3c0.1-0.2,0.2-0.2,0.3,0c0,0.1,0,0.2-0.1,0.1L50,21.3L50,21.3z"/>
	<path class="st0" d="M48,21.3c-0.1,0,0-0.1,0-0.1l0.3,0c0,0,0.1,0.1,0,0.1C48.3,21.4,48.1,21.4,48,21.3L48,21.3z"/>
	<path class="st0" d="M84.9,21.5c-0.1-0.1,0-0.2,0.1-0.3c0.1,0,0.2,0,0.2,0.1c0.1,0.2,0,0.4-0.1,0.5c-0.1,0.1,0,0.2,0.1,0.2l0.3,0.1
		c0,0,0.1,0,0.1,0.1l0.3,0.5c0,0.1,0,0.1,0,0.1c-0.2,0-0.3,0.1-0.4,0.2c0,0-0.1,0.1-0.1,0c-0.1,0-0.1,0-0.1-0.1c0,0,0-0.1-0.1-0.1
		c-0.1-0.1-0.2-0.2-0.3-0.2c0,0-0.1-0.1-0.1-0.1l0.1-0.4c0,0,0-0.1,0-0.1l-0.1-0.1c0,0,0-0.1,0-0.1L84.9,21.5
		C84.9,21.5,84.9,21.5,84.9,21.5L84.9,21.5z"/>
	<path class="st0" d="M84.8,22.6c0,0,0,0.2-0.2,0.3c-0.1,0.1-0.3,0.2-0.3,0.2c0,0,0-0.2,0.2-0.3C84.6,22.7,84.7,22.6,84.8,22.6
		L84.8,22.6z"/>
	<path class="st0" d="M77.4,23.5c-0.1-0.2-0.1-0.4,0-0.6c0,0,0.1,0,0.1,0l0.3,0.4c0,0,0,0.1,0,0.1c-0.1,0.1-0.1,0.2-0.3,0.1
		C77.4,23.5,77.4,23.5,77.4,23.5L77.4,23.5z"/>
	<path class="st0" d="M85.4,23.4c-0.1,0-0.1,0-0.2,0c0,0-0.1,0-0.1-0.1c0-0.2,0.6-0.3,0.7-0.4c0,0,0.1,0,0.1,0
		c0.1,0.3,0.1,0.5-0.1,0.7c0,0-0.1,0-0.1,0l-0.2-0.2C85.5,23.4,85.4,23.4,85.4,23.4L85.4,23.4z"/>
	<path class="st0" d="M83.9,23.6l0-0.1c0,0,0-0.1,0.1-0.1c0.2,0,0.4,0.1,0.6,0.3c0,0,0,0.1,0,0.1c-0.1,0.1-0.2,0.2-0.3,0.3
		c0,0,0,0.1,0,0.1l0.2,0.2c0,0,0,0.1,0,0.1l-0.2,0.1c0,0,0,0.1,0,0.1c0,0.2,0,0.3-0.2,0.3c0,0-0.1,0,0,0.1c0.1,0.1,0,0.2-0.1,0.3
		c0,0-0.1,0-0.1,0c-0.2-0.1-0.5-0.2-0.7-0.2c0,0-0.1,0-0.1-0.1c-0.1-0.2-0.3-0.4-0.5-0.6c0,0,0-0.1,0-0.1c0.1-0.1,0.2-0.2,0.4-0.2
		c0,0,0.1,0,0.1-0.1c0.1-0.1,0.2-0.2,0.4-0.3c0,0,0.1,0,0.1-0.1C83.6,23.8,83.7,23.7,83.9,23.6C83.9,23.7,83.9,23.7,83.9,23.6
		L83.9,23.6z"/>
	<path class="st0" d="M86.3,24.8C86.3,24.8,86.3,24.8,86.3,24.8L86.3,24.8c-0.2,0-0.2-0.1-0.2-0.2l0-0.1c0-0.1,0.1-0.2,0.2-0.1l0,0
		c0,0,0,0,0,0.1L86.3,24.8L86.3,24.8z"/>
	<path class="st0" d="M85.2,24.6l0.1,0.2c0,0,0,0.1,0,0.1L85.2,25c0,0,0,0.1,0,0.1l0.2,0.4c0,0,0,0.1-0.1,0.1
		c-0.1,0-0.2-0.1-0.2-0.2c0-0.1-0.2-0.1-0.2,0l-0.1,0.2c0,0.1-0.1,0.1-0.1,0l0,0c0,0-0.1-0.1,0-0.1l0.1-0.2c0,0,0-0.1,0-0.1
		l-0.2-0.1c-0.1,0-0.1-0.2,0-0.3l0.1,0c0,0,0.1,0,0.1-0.1l0.2-0.4c0,0,0.1-0.1,0.1-0.1c0.2,0.1,0.4,0.1,0.7,0.1c0.1,0,0.1,0,0.1,0.1
		c0,0.1,0,0.1-0.1,0.1c0,0-0.1,0-0.1,0L85.2,24.6C85.3,24.5,85.2,24.6,85.2,24.6L85.2,24.6z"/>
	<path class="st0" d="M88.3,26.2c-0.1,0.1-0.2,0.1-0.3,0c0,0,0-0.1,0-0.1l0.2-0.1c0,0,0-0.1,0-0.1c-0.1-0.4-0.7-0.4-1-0.5
		c0,0-0.1,0-0.1-0.1c0-0.2-0.1-0.3-0.3-0.3c0,0-0.1,0,0-0.1c0-0.1,0.1-0.1,0.2-0.2c0,0,0.1,0,0.1,0c0.2,0.1,0.4,0.2,0.5,0.4
		c0,0.1,0.1,0.1,0.1,0c0.4-0.4,1.6,0,1.9,0.4c0,0,0.1,0,0.1,0l0.1,0c0,0,0.1,0,0.1,0.1c0,0.1,0,0.1-0.1,0.2c0,0,0,0.1,0,0.1
		c0.2,0.2,0.4,0.3,0.6,0.4c0,0,0,0.1,0,0.1c-0.3,0.3-0.8-0.3-1.1-0.4c0,0-0.1,0-0.1,0c-0.1,0.2-0.3,0.3-0.5,0.3c0,0-0.1,0-0.1,0
		l-0.2-0.2C88.4,26.2,88.4,26.2,88.3,26.2L88.3,26.2z"/>
	<path class="st0" d="M85.8,25c0,0.1-0.1,0.1-0.2,0c-0.1,0-0.1-0.1-0.1-0.1c0-0.1,0.1-0.1,0.2,0C85.8,24.9,85.8,25,85.8,25L85.8,25z
		"/>
	<path class="st0" d="M82.7,25.3c0,0-0.1,0-0.2,0c-0.1,0-0.1-0.1-0.1-0.1c0,0,0.1,0,0.2,0C82.7,25.2,82.7,25.2,82.7,25.3L82.7,25.3z
		"/>
	<path class="st0" d="M86.8,25.3C86.8,25.4,86.8,25.4,86.8,25.3l-0.5,0c0,0-0.1,0-0.1-0.1l0,0c0,0,0-0.1,0.1-0.1l0.4,0.1
		C86.8,25.2,86.8,25.3,86.8,25.3L86.8,25.3L86.8,25.3z"/>
	<path class="st0" d="M86.1,25.2c0,0,0,0.1,0,0.1c0,0-0.1,0-0.1,0c0,0,0-0.1,0-0.1C86,25.2,86,25.2,86.1,25.2L86.1,25.2z"/>
	<path class="st0" d="M90.9,25.5c0,0,0,0.1,0,0.1l-0.5,0.2c0,0-0.1,0-0.1,0l0,0c0,0,0-0.1,0-0.1l0.5-0.2
		C90.8,25.4,90.8,25.4,90.9,25.5L90.9,25.5L90.9,25.5z"/>
	<path class="st0" d="M91.4,25.9c0,0-0.1,0-0.2-0.1c-0.1-0.1-0.1-0.2-0.1-0.2c0,0,0.1,0,0.2,0.1C91.4,25.8,91.5,25.9,91.4,25.9
		L91.4,25.9z"/>
	<path class="st0" d="M87.4,26c0,0-0.1-0.1,0-0.2c0-0.1,0.1-0.1,0.2-0.1c0,0,0.1,0.1,0,0.2C87.5,26,87.4,26,87.4,26L87.4,26z"/>
	<path class="st0" d="M83.8,26.2c0,0.1-0.1,0.1-0.1,0.1L82.1,26c-0.1,0-0.1-0.1-0.1-0.1l0,0c0-0.1,0.1-0.1,0.1-0.1l1.5,0.3
		C83.8,26.1,83.8,26.2,83.8,26.2L83.8,26.2L83.8,26.2z"/>
	<path class="st0" d="M91.9,26.1c0,0-0.1,0.1-0.2,0c-0.1,0-0.2-0.1-0.2-0.1c0,0,0.1-0.1,0.2,0C91.9,26,91.9,26,91.9,26.1L91.9,26.1z
		"/>
	<path class="st0" d="M84.4,26.3l-0.3,0c0,0-0.1,0-0.1-0.1c0,0,0-0.1,0-0.1c0.3-0.1,0.6-0.1,0.8,0.2c0,0,0,0.1,0,0.1
		c0,0-0.1,0-0.1,0L84.4,26.3C84.5,26.3,84.5,26.3,84.4,26.3L84.4,26.3z"/>
	<path class="st0" d="M84.9,26.3C84.9,26.3,84.9,26.3,84.9,26.3L84.9,26.3c0-0.1,0-0.2,0.1-0.1c0.1,0.1,0.2,0.1,0.3,0.1c0,0,0,0,0,0
		c0,0,0,0,0,0C85.2,26.4,85.1,26.3,84.9,26.3L84.9,26.3z"/>
	<path class="st0" d="M85.5,26.6C85.5,26.6,85.5,26.6,85.5,26.6L85.5,26.6c-0.1-0.1,0-0.3,0.1-0.3l0,0c0.1-0.1,0.3-0.1,0.3,0l0,0
		c0,0,0,0,0,0L85.5,26.6L85.5,26.6z"/>
	<path class="st0" d="M92.7,26.6C92.7,26.7,92.7,26.7,92.7,26.6l0,0.1c0,0-0.1,0-0.1,0l-0.3-0.4c0,0,0-0.1,0-0.1l0,0
		c0,0,0.1,0,0.1,0L92.7,26.6L92.7,26.6z"/>
	<path class="st0" d="M83.7,29.5c-0.8-0.9,1.3-0.9,1.4-1.5c0,0,0-0.1,0.1-0.1c0.4-0.3,0.7-0.9,1.2-0.6c0,0,0.1,0,0.1,0
		c0.2-0.2,0.3-0.3,0.3-0.6c0,0,0-0.1,0.1-0.1c0,0,0.1,0,0.1,0.1c0,0.1,0.1,0.1,0.1,0.1c0.3-0.1,0.5-0.1,0.8,0c0.1,0,0.1,0.1,0,0.1
		l-0.1,0.1c-0.1,0.1-0.1,0.2,0,0.3c0.2,0.2,0.5,0.3,0.7,0.4c0.1,0,0.1,0,0.2-0.1l0.2-1.1c0-0.1,0.1-0.1,0.1-0.1c0.1,0,0.1,0,0.1,0.1
		c0,0.4,0.4,0.5,0.5,0.8c0.1,0.2,0.2,0.5,0.3,0.7c0,0,0,0.1,0.1,0.1c0.2,0.1,0.3,0.2,0.4,0.4c0,0,0,0.1,0.1,0.1
		c0.6,0.5,0.9,1.4,0.5,2.1c-0.3,0.5-0.4,1.4-1.2,1.4c-0.3,0-0.8,0-1.1-0.2c0,0-0.1,0-0.1-0.1c-0.1-0.4-0.3-0.6-0.8-0.6
		c0,0-0.1,0-0.1-0.1c-0.5-1-1.6-0.6-2.3-0.1c0,0-0.1,0-0.1,0c-0.2,0-0.4,0-0.6,0.1c-0.3,0.2-0.6,0.2-0.8-0.1c0,0,0-0.1,0-0.1L84,31
		c0,0,0-0.1,0-0.1c-0.1-0.1-0.1-0.3-0.2-0.4c0-0.3-0.1-0.4-0.2-0.6c0,0,0-0.1,0-0.1L83.7,29.5C83.7,29.6,83.7,29.6,83.7,29.5
		L83.7,29.5z"/>
	<path class="st0" d="M93.7,27.8c0,0-0.1,0-0.2-0.1c-0.1-0.1-0.1-0.2,0-0.2c0,0,0.1,0,0.2,0.1C93.7,27.7,93.7,27.8,93.7,27.8
		L93.7,27.8z"/>
	<path class="st0" d="M95.4,28.1c-0.1-0.1-0.1-0.1,0-0.1c0.1,0,0.3-0.3,0.4-0.2c0,0,0,0.1,0,0.1c-0.1,0.1-0.2,0.2-0.2,0.3
		c0,0,0,0.1-0.1,0.1C95.6,28.2,95.5,28.1,95.4,28.1L95.4,28.1z"/>
	<path class="st0" d="M93.5,28.9c0,0-0.2,0-0.4-0.1c-0.2-0.1-0.3-0.3-0.3-0.3c0,0,0.2,0,0.4,0.1C93.4,28.7,93.5,28.9,93.5,28.9
		L93.5,28.9z"/>
	<path class="st0" d="M26.3,37.6c-0.4-0.3-0.6-0.7-0.6-1.2c-0.1-1.5,0-3.1-0.3-4.6c0-0.2,0-0.2,0.1-0.1c0.7,0.9,1.5,1.8,2.2,2.8
		c0.6,0.8,0.7,1.3,0.8,2.3c0,0.9,0,1.9,0.1,2.8c0,0,0,0.1-0.1,0C27.8,38.9,27,38.2,26.3,37.6L26.3,37.6z"/>
	<path class="st0" d="M5.1,45.3c-2.5-0.2-2.9-3.1-2.1-5c1.2-2.6,2-5.2,2.9-7.9C6,32,6.1,31.8,6.5,31.8c0,0,0.1,0,0.1,0
		c0.3,0.3,0.3,0.5,0.2,0.9c-0.6,2.1-1.3,4.3-2,6.4c-0.3,0.8,0,1.9,0.8,2.3c1.1,0.6,1.9-0.1,2.7-0.8c0,0,0.1,0,0.1,0
		C8.5,42.6,7.6,45.5,5.1,45.3L5.1,45.3z"/>
	<path class="st0" d="M13.7,33.5c0.9,0.6,2.4,1.7,2.4,2.8c0,6.9,0,12.5-0.2,17c-0.1,2.3-1,5.1-1.8,7.4c-0.1,0.4-0.2,0.4-0.1,0
		c0.4-3.1,0.4-5.9,0.3-9.6C14.2,45.2,13.9,39.3,13.7,33.5C13.6,33.5,13.6,33.5,13.7,33.5L13.7,33.5z"/>
	<path class="st0" d="M89,52.7c-3-2.7-3.8-7.2-2.6-10.9c1.5-5.1,7-7.4,11.9-6.2c5.2,1.2,7.7,5.9,7.2,10.9c-0.4,3.3-2.1,6-5,7.4
		C96.8,55.8,92.1,55.4,89,52.7 M96.1,39.8c-6.3-0.7-7,10.1-1,10.8C101.6,51.4,102.3,40.5,96.1,39.8L96.1,39.8z"/>
	<path class="st0" d="M48.2,54.7c0,0,0-0.1,0-0.1c2.2-6.3,4.3-12.6,6.5-18.8c0-0.1,0.1-0.1,0.1-0.1h5.9c0.1,0,0.1,0,0.1,0.1
		l6.5,18.8c0,0.1,0,0.2-0.2,0.2c-1.6,0-3.1,0-4.7,0c-0.1,0-0.2-0.1-0.2-0.2c-0.3-1.1-0.6-2.2-1-3.2c0-0.1-0.1-0.1-0.2-0.1h-6.9
		c0,0-0.1,0-0.1,0.1l-1,3.3c0,0.1-0.1,0.2-0.2,0.2h-4.6C48.3,54.8,48.2,54.7,48.2,54.7 M57.9,40.1C57.8,40,57.8,40,57.7,40
		c0,0-0.1,0-0.1,0.1l-2.2,7.3c0,0,0,0,0,0h4.4c0.1,0,0.3-0.1,0.2-0.3L57.9,40.1C57.9,40.1,57.9,40.1,57.9,40.1L57.9,40.1z"/>
	<path class="st0" d="M77.7,39.9c0-0.1,0-0.1-0.1-0.1c-2.9,0-5.8,0-8.7,0c-0.2,0-0.3-0.1-0.3-0.4c0-1.1,0-2.2,0-3.3
		c0-0.3,0.1-0.4,0.4-0.4c5,0,9.9,0,14.9,0c0.2,0,0.3,0.1,0.3,0.3v3.7c0,0,0,0.1,0,0.1c0,0.1-0.1,0.1-0.1,0.2
		c-3,3.4-5.9,6.7-8.9,10.1c-0.1,0.1-0.2,0.3-0.1,0.4c0,0.1,0.1,0.1,0.2,0.1l8.8,0c0.1,0,0.2,0.1,0.2,0.2c0,1.2,0,2.4,0,3.5
		c0,0.4-0.2,0.5-0.6,0.5c-5,0-10,0-15,0c-0.2,0-0.4-0.2-0.4-0.4c0-1.2,0-2.5,0-3.7c0-0.1,0-0.2,0.1-0.2c2.9-3.3,5.9-6.6,8.8-10
		C77.4,40.3,77.6,40.1,77.7,39.9L77.7,39.9z"/>
	<path class="st0" d="M113.2,43.2C113.2,43.1,113.2,43.1,113.2,43.2c-0.1,3.7-0.1,7.4-0.1,11.1c0,0.3-0.1,0.5-0.4,0.5
		c-1.3,0-2.6,0-3.8,0c-0.4,0-0.6-0.2-0.6-0.6c0-6.1-0.1-12.2,0-18.3c0,0,0-0.1,0-0.1c0.1-0.1,0.2-0.2,0.4-0.2c2,0,3.2,0,3.8,0
		c0.2,0,0.4,0.1,0.5,0.3c2.3,3.5,4.5,6.9,6.8,10.4c0.3,0.4,0.7,0.2,0.7-0.3c0-3.3,0-6.7,0-10c0-0.3,0.2-0.4,0.5-0.4c1.3,0,2.6,0,4,0
		c0,0,0.1,0,0.1,0c0.1,0.1,0.2,0.2,0.3,0.3c0,0,0,0.1,0,0.1c0,6,0,12.1,0,18.1c0,0.4-0.2,0.6-0.6,0.6c-1.2,0-2.5,0-3.7,0
		c-0.3,0-0.4-0.2-0.6-0.4C118.1,50.6,115.7,46.9,113.2,43.2L113.2,43.2z"/>
	<path class="st0" d="M27.5,58.8c-1.5-0.5-1.2-1.9-1.3-3.1c0-1.8,0-3.6,0-5.5c0-2.4,0-4.8-0.1-7.3c0-0.1,0-0.1,0.1-0.1
		c1,0.6,2.3,1.8,2.3,3.1c0,3,0,6,0.1,9c0,1,0,1.9,0,2.9c0,0,0,0.1,0,0.1l-1.1,0.9C27.6,58.8,27.6,58.8,27.5,58.8L27.5,58.8z"/>
	<path class="st0" d="M21.7,45.1c0,1-0.8,1.8-1.8,1.8c-1,0-1.8-0.8-1.8-1.8s0.8-1.8,1.8-1.8C20.9,43.2,21.7,44.1,21.7,45.1
		L21.7,45.1z"/>
	<path class="st0" d="M25.5,52.3c-0.9-0.9-1.7-1.8-2.5-2.7c-0.2-0.2-0.3-0.2-0.2-0.5c0.2-1.3,0.5-2.5,0.9-3.8c0,0,0,0,0.1,0
		c0.7,0.5,1.3,1.1,1.6,1.9c0.1,0.3,0.2,0.7,0.2,1.4c0,1.2,0.1,2.5,0.1,3.7C25.6,52.3,25.6,52.3,25.5,52.3L25.5,52.3z"/>
	<path class="st0" d="M9.1,50.3l-2-1.8c0,0,0-0.1,0-0.1c0.6-0.8,1.3-1.5,2.1-2.2c0,0,0.1,0,0.2,0c0.8,0.5,1.4,1.2,2,1.9
		c0,0,0,0.1,0,0.1l-2,2.2C9.3,50.3,9.1,50.3,9.1,50.3L9.1,50.3z"/>
	<path class="st0" d="M1.5,54.9c-0.3-0.6-0.2-1.2,0-1.8c0.5-1.4,1-2.8,1.5-4.2c0-0.2,0.2-0.2,0.3-0.2c0.1,0,0.2,0.2,0.2,0.3
		c-0.4,1.2-0.7,2.4-1.1,3.6c-0.1,0.4,0,0.8,0.3,1c0.5,0.4,1,0.1,1.5-0.2c0.1,0,0.1,0,0.1,0c0.1,0.7-0.2,1.6-0.7,2
		C2.8,55.9,1.9,55.6,1.5,54.9L1.5,54.9z"/>
	<path class="st0" d="M24.3,57c1.5,1.3,3.2,2.5,4.9,3.6c0.4,0.3,0.8,0.6,1.2,1.1c1.9,2.4,1.1,5.5-1.2,7.3c0,0-0.1,0-0.1,0l0.1-2.5
		c0,0,0-0.1,0-0.1c1-1.2-0.2-2.2-1.1-2.9c-3.1-2.5-6.3-4.9-9.5-7.3c-0.1,0-0.1-0.1-0.1-0.2c-0.2-1.7,0-3.4,0.3-5c0,0,0.1-0.1,0.1,0
		c1.5,1.6,3.1,3,5,4.2c0.5,0.3,1,0.6,1.5,1c0.1,0.1,0.1,0.2,0,0.3l-1,0.4C24.2,56.8,24.2,57,24.3,57L24.3,57z"/>
	<path class="st0" d="M28.3,59.2c0,0,0-0.1,0-0.1c0.7-0.5,1.5-1.3,2-2.1c0.4-0.7-0.7-1.3-0.7-2c0-1.2,0-2.4,0-3.6c0,0,0-0.1,0.1,0
		c0.4,0.6,0.9,1.3,1.1,1.9c1.1,2.5,0.8,4.9-0.7,7.2c0,0.1-0.1,0.1-0.2,0L28.3,59.2L28.3,59.2z"/>
	<path class="st0" d="M9,60.5c0.3-1.1,0.6-2.2,1.4-3.1c0.1-0.1,0.2-0.1,0.3,0c0.3,0.2,0.7,1.3,0.8,1.6c0.2,0.8-0.8,0.4-1.1,0.3
		c-0.1,0-0.1,0-0.2,0.1c-0.5,0.8-0.8,1.7-0.8,2.6c0,0,0,0.1-0.1,0.1l-0.2,0c0,0-0.1,0-0.1,0.1c0,0.4,0,0.6,0,0.7
		c0,0.6-0.7,0.5-0.7-0.1c0-0.8-0.1-2.8-1.3-2.9c-0.3,0-0.7,0-0.8-0.3c0-0.3,0.7-1.6,1.1-1.1c0.5,0.7,1.1,1.2,1.4,2
		C8.9,60.6,9,60.6,9,60.5L9,60.5z"/>
	<path class="st1" d="M64.2,75.1C64.2,75.1,64.2,75.1,64.2,75.1c-2.3,2.6-5.9,3-9,2.1c-6.6-2.1-7.9-11.2-3.9-16.1
		c1.9-2.3,5-3.3,8-3.2c4.1,0.1,7.8,2.6,8.2,6.9c0,0.4-0.3,0.4-0.6,0.4c-1.3,0-2.6,0-3.8,0c-0.2,0-0.4-0.2-0.5-0.4
		c-0.6-1.4-1.5-2.4-3.1-2.6c-4.7-0.4-5.9,4.5-4.8,8c0.6,1.7,1.7,2.6,3.4,2.8c1.6,0.2,3.3-0.3,4.2-1.7c0,0,0-0.1,0-0.1L62.1,71
		c0,0-0.1-0.1-0.1-0.1l-2.7,0c-0.1,0-0.3-0.1-0.3-0.3c0-0.9,0-1.8,0-2.8c0-0.3-0.1-0.7,0.4-0.7c2.6,0,5.2,0,7.7,0
		c0.4,0,0.6,0.2,0.6,0.6c0,3.1,0,6.2,0,9.3c0,0.2-0.1,0.3-0.3,0.3c-0.9,0-1.8,0-2.7,0c-0.2,0-0.4,0-0.5-0.1c0,0-0.1-0.1-0.1-0.1
		L64.2,75.1L64.2,75.1z"/>
	<path class="st1" d="M98.5,77.2c-5.7,1.6-11.8-1.1-12.9-7.2c-0.7-3.9,0.4-8.1,3.8-10.4c2.6-1.7,6-2,8.9-1.2
		C107.3,60.8,107.4,74.6,98.5,77.2 M90.8,69.4c0.8,3.7,5.4,5.2,7.9,2.2c1.6-1.9,1.6-5.5,0.1-7.5c-1.1-1.5-3-2.1-4.8-1.6
		C91,63.3,90.2,66.7,90.8,69.4L90.8,69.4z"/>
	<path class="st0" d="M11.7,71.9c-3.2,1-6.7,0.1-8.4-3C1.5,65.5,2,61.5,3.6,58.3c0-0.1,0.1-0.2,0.1-0.2c0,0,0.1,0,0.1,0
		c-1,3.6-0.8,9,3.7,10.2C9,68.6,10.6,68.4,12,68c0,0,0.1,0,0.1,0.1c-0.2,1.2-0.2,2.5,0,3.7c0,0,0,0.1-0.1,0.1l-0.2,0
		C11.8,71.8,11.8,71.8,11.7,71.9L11.7,71.9z"/>
	<path class="st1" d="M71.6,77.4c-0.3,0-0.7,0.1-0.7-0.4c0-6.2,0-12.4,0-18.6c0-0.3,0.1-0.3,0.3-0.3c1.6,0,3.1,0,4.6,0
		c0.1,0,0.2,0.1,0.2,0.2v14.5c0,0.1,0.1,0.2,0.2,0.2l8.6,0c0,0,0.1,0,0.1,0.1v4.1c0,0.1-0.1,0.2-0.2,0.2
		C80.3,77.4,76,77.4,71.6,77.4L71.6,77.4z"/>
	<path class="st1" d="M119.9,67.4c-0.1,0-0.1,0.1,0,0.1c3.8,1.2,4.7,5.8,1.8,8.4c-1,0.9-2.2,1.4-3.7,1.4c-2.6,0-5.9,0.1-9.9,0
		c-0.2,0-0.3-0.1-0.3-0.3c0-6.3,0-12.5,0-18.7c0-0.1,0.1-0.2,0.2-0.2c3,0,6.1,0,9.1,0c2.1,0,4.1,0.7,5.2,2.5
		c1.1,1.9,0.7,4.3-0.9,5.8C120.9,66.8,120.4,67.1,119.9,67.4 M112.7,62.2l0,3.6c0,0.1,0.1,0.2,0.2,0.2l2.9,0c1.1,0,1.9-0.8,1.9-1.8
		l0-0.4c0-1-0.9-1.8-1.9-1.8l-2.9,0C112.9,61.9,112.7,62,112.7,62.2 M112.8,69.6l0,3.8c0,0.1,0.1,0.2,0.2,0.2l3.3,0
		c1.2,0,2.2-0.9,2.2-2.1v-0.1c0-1.1-1-2.1-2.2-2.1l-3.3,0C112.8,69.4,112.8,69.5,112.8,69.6L112.8,69.6z"/>
	<path class="st1" d="M124.5,77.4c-0.4,0-0.5-0.3-0.4-0.6c2.1-6.1,4.2-12.2,6.4-18.4c0.1-0.2,0.2-0.2,0.4-0.3c1.9,0,3.7,0,5.6,0
		c0.1,0,0.2,0.2,0.3,0.3c2.1,6.1,4.3,12.3,6.4,18.5c0,0,0,0.1,0,0.1c-0.1,0.3-0.2,0.4-0.5,0.4c-1.4,0-2.7,0-4.1,0
		c-0.3,0-0.4-0.2-0.5-0.5c-0.3-0.9-0.5-1.8-0.8-2.7c-0.1-0.3-0.2-0.4-0.6-0.4c-2.3,0.1-4.4-0.1-6.4,0c0,0-0.1,0-0.1,0
		c-0.1,0.1-0.2,0.2-0.2,0.4c-0.3,1-0.6,2-0.9,3c0,0-0.1,0.1-0.1,0.1C127.5,77.4,126,77.4,124.5,77.4 M133.7,62.9
		c-0.1-0.1-0.2-0.1-0.2,0c-0.1,0.1-0.1,0.1-0.1,0.2c-0.7,2.3-1.4,4.6-2.1,6.8c0,0,0,0.1,0.1,0.1c1.3,0,2.6,0,4,0
		c0.3,0,0.6-0.2,0.5-0.5c-0.6-2.2-1.3-4.3-2-6.5C133.8,63,133.8,62.9,133.7,62.9L133.7,62.9z"/>
	<path class="st1" d="M146.3,77.4c-0.3,0-1.1,0.1-1.1-0.4c0-6.2,0-12.5,0-18.7c0-0.1,0.1-0.2,0.2-0.2h4.7c0.1,0,0.2,0.1,0.2,0.2
		l0,14.4c0,0,0,0.1,0,0.1c0.1,0.1,0.2,0.1,0.3,0.1c2.8,0,5.5,0,8.3,0c0,0,0.1,0,0.1,0.1v4.1c0,0.2-0.1,0.2-0.2,0.2
		C154.7,77.4,150.5,77.4,146.3,77.4L146.3,77.4z"/>
	<path class="st0" d="M26.8,63.2c0.1,0.1,0.1,0.1,0,0.2c-3.7,3.1-7.8,5.6-12.2,7.6c-0.1,0-0.1,0-0.1,0c-0.5-1.1-0.7-2.2-0.6-3.3
		c0-0.1,0-0.1,0.1-0.1c3.9-1.4,7.4-3.3,10.7-5.7c0,0,0.1,0,0.2,0L26.8,63.2L26.8,63.2z"/>
	<path class="st0" d="M27.4,63.6c0.3,0.2,1.3,0.9,1.3,1.3c0.2,3.6-0.3,7.8-2.1,11.1c0,0.1-0.1,0-0.1,0c0-3.7-0.1-7.4-0.1-11.1
		c0-0.2,0-0.3,0.2-0.5C26.8,64.1,27.1,63.8,27.4,63.6C27.4,63.6,27.4,63.6,27.4,63.6L27.4,63.6z"/>
	<path class="st0" d="M14.3,75.1c-0.8-0.6-1.3-1.5-1.6-2.6c-0.7-2.9-0.4-5.6,0.9-8.2c0.1-0.1,0.2-0.2,0.3-0.3c0,0,0.1,0,0.1,0
		c0,0.2,0,0.3,0,0.4c-0.4,2.3-1.3,5,0.3,7.1c1.5,2.1,4.4,1.2,6.3,0.3c1.8-0.8,3.6-1.8,5.3-3c0.1-0.1,0.2,0,0.2,0.1
		c0,0.7,0,1.5,0.1,2.2c0,0.1,0,0.3-0.2,0.3C23.4,73.6,17.4,77.8,14.3,75.1L14.3,75.1z"/>
</g>
</svg>
